<?xml version="1.0" encoding="utf-8"?>
<!-- Generator: Adobe Illustrator 18.0.0, SVG Export Plug-In . SVG Version: 6.00 Build 0)  -->
<!DOCTYPE svg PUBLIC "-//W3C//DTD SVG 1.1//EN" "http://www.w3.org/Graphics/SVG/1.1/DTD/svg11.dtd">
<svg version="1.1" id="Layer_1" xmlns="http://www.w3.org/2000/svg" xmlns:xlink="http://www.w3.org/1999/xlink" x="0px" y="0px"
	 viewBox="0 272 612 237" enable-background="new 0 272 612 237" xml:space="preserve">
<g>
	
		<text transform="matrix(1 0 0 1 48.9669 448.9238)" fill="#FFFFFF" font-family="'AktivGrotesk-Regular'" font-size="89.4028" letter-spacing="-1">Mo</text>
	<text transform="matrix(1 0 0 1 174.7675 448.9238)" fill="#FFFFFF" font-family="'AktivGrotesk-Regular'" font-size="89.4028">neyGuide</text>
</g>
<g>
	<g>
		<path fill="#FFFFFF" d="M270.8,353.2c1.5-1,3.3-1.5,5.4-1.5c1.9,0,3.6,0.4,5,1.2c1.5,0.8,2.6,2.2,3.5,4.2c0.9-1.8,2.2-3.2,3.9-4.1
			s3.5-1.4,5.4-1.4c1.8,0,3.3,0.3,4.6,0.9c1.2,0.6,2.3,1.4,3.2,2.4c0.9,1,1.5,2.2,1.9,3.6s0.6,2.8,0.6,4.3v17h-5.4v-15.2
			c0-1.1-0.1-2.2-0.3-3.2s-0.5-1.9-1-2.6s-1.1-1.4-1.9-1.9s-1.8-0.7-2.9-0.7c-1.2,0-2.3,0.2-3.2,0.8c-0.9,0.5-1.6,1.2-2.2,2
			c-0.5,0.9-0.9,1.8-1.2,2.8c-0.2,1-0.4,2.1-0.4,3.2v14.8h-5.4v-16.3c0-1.1-0.1-2.1-0.3-2.9s-0.5-1.6-1-2.3
			c-0.5-0.7-1.1-1.2-1.8-1.5c-0.7-0.4-1.6-0.5-2.7-0.5c-2,0-3.7,0.9-5,2.5c-1.3,1.6-2,3.9-2,6.6v14.6H262v-21.6c0-0.7,0-1.7-0.1-2.9
			c0-1.2-0.1-2.2-0.2-3.1h5.2c0.1,0.7,0.2,1.5,0.2,2.3c0,0.9,0.1,1.6,0.1,2.2h0.2C268.1,355.4,269.2,354.2,270.8,353.2z"/>
		<path fill="#FFFFFF" d="M323.9,374h0.2l7.6-21.6h5.8l-13.3,33.9c-0.5,1.2-0.9,2.2-1.5,3.1c-0.5,0.9-1.2,1.7-1.9,2.3
			c-0.8,0.6-1.6,1.2-2.5,1.5c-1,0.3-2.2,0.5-3.5,0.5c-0.6,0-1.2,0-1.8-0.1s-1.2-0.2-1.9-0.3l0.5-4.8c0.9,0.3,1.9,0.5,2.7,0.5
			c1.4,0,2.5-0.4,3.2-1.2c0.7-0.8,1.3-1.9,1.9-3.4l1.7-4.6l-11.7-27.4h6.1L323.9,374z"/>
	</g>
	<polygon fill="#FFFFFF" points="327.5,327.8 323.5,325.1 327.8,323.1 332,320.9 331.7,325.7 331.5,330.5 	"/>
	<g>
		<path fill="#FFFFFF" d="M297.6,287.9c-42.3,0-76.6,34.3-76.6,76.6h12.3c0-35.5,28.7-64.3,64.3-64.3c35.5,0,64.3,28.7,64.3,64.3
			h12.3C374.1,322.1,339.8,287.9,297.6,287.9z"/>
		<path opacity="0.1" fill="#FFFFFF" enable-background="new    " d="M297.6,428.7c-35.5,0-64.3-28.7-64.3-64.3H221
			c0,42.3,34.3,76.6,76.6,76.6s76.6-34.3,76.6-76.6h-12.3C361.8,399.9,333,428.7,297.6,428.7z"/>
	</g>
</g>
<g>
	<path fill="#FFFFFF" d="M52.5,492.4l10.4-26.5h2.8l10.2,26.5h-2.6l-3.1-8.3H58.2l-3.2,8.3H52.5z M59,482h10.4l-5.2-13.9L59,482z"/>
	<path fill="#FFFFFF" d="M104.1,473.3h2.2v17.2c0,1.3-0.2,2.5-0.4,3.6c-0.2,1.2-0.7,2.2-1.4,3.1c-0.7,0.9-1.5,1.6-2.7,2.1
		c-1.2,0.5-2.6,0.8-4.5,0.8c-1.4,0-2.6-0.2-3.6-0.5s-1.9-0.8-2.5-1.3c-0.6-0.5-1.2-1.2-1.5-1.8c-0.3-0.6-0.5-1.2-0.5-1.9h2.4
		c0.2,0.7,0.5,1.3,0.8,1.8c0.4,0.5,0.8,0.8,1.3,1.1c0.5,0.3,1.1,0.5,1.7,0.5c0.6,0.1,1.2,0.2,1.9,0.2c1.5,0,2.7-0.2,3.6-0.8
		s1.6-1.2,2.1-2c0.5-0.9,0.8-1.8,0.9-2.9c0.2-1.1,0.2-2.2,0.2-3.2c-0.7,1.2-1.7,2.1-2.9,2.7c-1.2,0.6-2.6,0.9-3.9,0.9
		c-1.5,0-2.7-0.3-3.8-0.9c-1.1-0.5-1.9-1.3-2.6-2.2c-0.7-0.9-1.2-2-1.5-3.2c-0.3-1.2-0.5-2.5-0.5-3.9s0.2-2.7,0.5-3.9
		c0.3-1.2,0.8-2.3,1.5-3.2c0.7-0.9,1.6-1.6,2.7-2.1c1.1-0.5,2.4-0.8,3.9-0.8c0.6,0,1.2,0.1,1.9,0.2c0.6,0.2,1.2,0.4,1.9,0.8
		c0.6,0.3,1.2,0.7,1.6,1.2c0.5,0.5,0.9,1.1,1.2,1.6h0.1L104.1,473.3L104.1,473.3z M104.1,483c0-1.2-0.2-2.2-0.4-3.2
		s-0.7-1.9-1.2-2.5c-0.5-0.7-1.2-1.3-2-1.7s-1.7-0.6-2.8-0.6c-0.9,0-1.8,0.2-2.6,0.5s-1.5,0.9-2.1,1.5c-0.6,0.6-1.1,1.4-1.4,2.3
		c-0.3,0.9-0.5,2-0.5,3.2c-0.1,1.2,0.1,2.3,0.3,3.4s0.6,1.9,1.2,2.8c0.5,0.8,1.2,1.4,2.1,1.9c0.8,0.5,1.9,0.7,3,0.7
		c1,0,1.9-0.2,2.7-0.6c0.8-0.5,1.5-1,2-1.7c0.5-0.7,1-1.5,1.2-2.6C104,485.1,104.1,484.1,104.1,483z"/>
	<path fill="#FFFFFF" d="M124.8,473.3h2.2v19.1h-2.2v-2.6c-0.3,0.3-0.6,0.7-1,1.1c-0.4,0.4-0.8,0.7-1.2,1s-1,0.5-1.7,0.8
		c-0.6,0.2-1.4,0.3-2.2,0.3c-1.3,0-2.3-0.2-3.2-0.5c-0.9-0.4-1.5-0.9-2.1-1.5c-0.5-0.6-0.9-1.4-1.2-2.2c-0.2-0.9-0.4-1.8-0.4-2.8
		v-12.6h2.2v12.5c0,1.6,0.4,2.9,1.2,3.8s2,1.3,3.8,1.3c0.9,0,1.7-0.2,2.5-0.5c0.7-0.4,1.3-0.9,1.9-1.5c0.5-0.6,0.9-1.4,1.2-2.3
		c0.3-0.9,0.4-1.9,0.4-2.9L124.8,473.3L124.8,473.3z"/>
	<path fill="#FFFFFF" d="M132.6,469.2v-3.2h2.4v3.2H132.6z M132.7,492.4v-19.1h2.2v19.1H132.7z"/>
	<path fill="#FFFFFF" d="M155.3,465.9h2.2v26.5h-2.2v-3.3h-0.1c-0.3,0.6-0.7,1.2-1.2,1.7c-0.5,0.5-1.1,0.9-1.6,1.2
		c-0.6,0.3-1.2,0.5-1.9,0.8c-0.6,0.2-1.2,0.2-1.9,0.2c-1.5,0-2.9-0.2-3.9-0.8c-1.1-0.5-1.9-1.2-2.7-2.1c-0.7-0.9-1.2-1.9-1.5-3.2
		c-0.3-1.2-0.5-2.5-0.5-3.9c0-1.3,0.2-2.6,0.5-3.9c0.3-1.2,0.9-2.3,1.5-3.2c0.7-0.9,1.6-1.6,2.6-2.2c1.1-0.5,2.3-0.9,3.8-0.9
		c1.3,0,2.6,0.3,3.9,0.9c1.2,0.6,2.2,1.5,2.9,2.7L155.3,465.9L155.3,465.9z M155.3,482.9c0-1.1-0.2-2.1-0.5-3.1
		c-0.3-1-0.7-1.9-1.2-2.5c-0.5-0.7-1.2-1.3-2-1.7c-0.8-0.5-1.7-0.6-2.7-0.6c-1.2,0-2.2,0.2-3,0.7c-0.9,0.5-1.5,1.1-2.1,1.9
		c-0.5,0.8-0.9,1.7-1.2,2.8c-0.2,1.1-0.3,2.2-0.3,3.4c0,1.2,0.2,2.2,0.5,3.2s0.8,1.7,1.4,2.3c0.6,0.6,1.3,1.2,2.1,1.5
		c0.8,0.3,1.6,0.5,2.6,0.5c1,0,1.9-0.2,2.8-0.6c0.8-0.4,1.5-1,2-1.7c0.5-0.7,0.9-1.5,1.2-2.6C155.2,485.1,155.3,484,155.3,482.9z"/>
	<path fill="#FFFFFF" d="M164.4,483.4c0,1,0.2,2,0.4,2.9c0.2,0.9,0.7,1.7,1.2,2.4c0.5,0.7,1.2,1.2,2,1.6c0.8,0.4,1.8,0.6,2.8,0.6
		c1.5,0,2.7-0.4,3.7-1.2c1-0.8,1.7-1.9,2.1-3.2h2.5c-0.2,0.9-0.6,1.8-1.1,2.5c-0.5,0.8-1,1.5-1.6,2c-0.7,0.5-1.5,1-2.4,1.3
		c-0.9,0.3-1.9,0.5-3.2,0.5c-1.5,0-2.9-0.2-3.9-0.8c-1.1-0.5-2-1.2-2.7-2.1c-0.7-0.9-1.2-1.9-1.6-3.2c-0.3-1.2-0.5-2.5-0.5-3.9
		c0-1.4,0.2-2.7,0.6-3.9c0.4-1.2,1-2.3,1.7-3.2c0.8-0.9,1.7-1.6,2.8-2.2c1.1-0.5,2.3-0.8,3.7-0.8c2.6,0,4.7,0.9,6.2,2.7
		c1.5,1.8,2.2,4.4,2.2,7.9L164.4,483.4L164.4,483.4z M176.9,481.6c0-0.9-0.2-1.8-0.4-2.6c-0.2-0.9-0.6-1.5-1.2-2.2
		c-0.5-0.6-1.2-1.1-1.9-1.5c-0.8-0.4-1.6-0.5-2.6-0.5s-1.9,0.2-2.6,0.5c-0.8,0.4-1.4,0.9-1.9,1.5c-0.5,0.6-0.9,1.3-1.2,2.2
		c-0.3,0.8-0.5,1.7-0.6,2.5L176.9,481.6L176.9,481.6z"/>
	<path fill="#FFFFFF" d="M198.3,465.9h2.2v26.5h-2.2v-3.3h-0.1c-0.3,0.6-0.7,1.2-1.2,1.7s-1.1,0.9-1.6,1.2c-0.6,0.3-1.2,0.5-1.9,0.8
		c-0.6,0.2-1.2,0.2-1.9,0.2c-1.5,0-2.9-0.2-3.9-0.8c-1.1-0.5-1.9-1.2-2.7-2.1c-0.7-0.9-1.2-1.9-1.5-3.2c-0.3-1.2-0.5-2.5-0.5-3.9
		c0-1.3,0.2-2.6,0.5-3.9c0.3-1.2,0.9-2.3,1.5-3.2c0.7-0.9,1.6-1.6,2.6-2.2c1.1-0.5,2.3-0.9,3.8-0.9c1.4,0,2.6,0.3,3.9,0.9
		c1.2,0.6,2.2,1.5,2.9,2.7L198.3,465.9L198.3,465.9z M198.3,482.9c0-1.1-0.2-2.1-0.5-3.1s-0.7-1.9-1.2-2.5c-0.5-0.7-1.2-1.3-2-1.7
		c-0.8-0.5-1.7-0.6-2.7-0.6c-1.2,0-2.2,0.2-3,0.7c-0.9,0.5-1.5,1.1-2.1,1.9c-0.5,0.8-0.9,1.7-1.2,2.8c-0.2,1.1-0.3,2.2-0.3,3.4
		c0,1.2,0.2,2.2,0.5,3.2s0.8,1.7,1.4,2.3c0.6,0.6,1.3,1.2,2.1,1.5c0.8,0.3,1.6,0.5,2.6,0.5c1,0,1.9-0.2,2.8-0.6c0.8-0.4,1.5-1,2-1.7
		c0.5-0.7,0.9-1.5,1.2-2.6C198.2,485.1,198.3,484,198.3,482.9z"/>
	<path fill="#FFFFFF" d="M218.8,500h-2.2v-26.6h2.2v3.3h0.1c0.3-0.6,0.7-1.2,1.2-1.6c0.5-0.5,1.1-0.9,1.6-1.2
		c0.6-0.3,1.2-0.5,1.9-0.8c0.6-0.2,1.2-0.2,1.9-0.2c1.5,0,2.9,0.2,3.9,0.8c1.1,0.5,1.9,1.2,2.7,2.1c0.7,0.9,1.2,1.9,1.5,3.2
		c0.3,1.2,0.5,2.5,0.5,3.9c0,1.3-0.2,2.6-0.5,3.9c-0.3,1.2-0.9,2.3-1.5,3.2c-0.7,0.9-1.6,1.6-2.6,2.2c-1.1,0.5-2.3,0.9-3.8,0.9
		c-1.4,0-2.6-0.3-3.9-0.9c-1.2-0.6-2.2-1.5-2.9-2.7L218.8,500L218.8,500z M218.8,483c0,1.1,0.2,2.1,0.5,3.1c0.3,1,0.7,1.9,1.2,2.5
		c0.5,0.7,1.2,1.3,2,1.7c0.8,0.5,1.7,0.6,2.7,0.6c1.2,0,2.1-0.2,2.9-0.7c0.9-0.5,1.5-1.1,2.1-1.9c0.5-0.8,0.9-1.7,1.2-2.8
		c0.2-1.1,0.3-2.2,0.3-3.4c0-1.2-0.2-2.2-0.5-3.2c-0.3-0.9-0.8-1.7-1.4-2.3c-0.6-0.6-1.3-1.2-2.1-1.5c-0.8-0.3-1.6-0.5-2.5-0.5
		c-1,0-1.9,0.2-2.8,0.6c-0.8,0.4-1.5,1-2,1.7c-0.5,0.7-0.9,1.5-1.2,2.5C218.9,480.8,218.8,481.8,218.8,483z"/>
	<path fill="#FFFFFF" d="M239.2,492.4v-26.5h2.2v26.5H239.2z"/>
	<path fill="#FFFFFF" d="M255.8,481.3c0.4-0.1,0.9-0.2,1.5-0.2c0.5-0.1,1.1-0.2,1.4-0.4c0.4-0.2,0.6-0.5,0.7-0.9
		c0.1-0.4,0.2-0.8,0.2-1.2c0-1.2-0.4-2.1-1.1-2.8c-0.7-0.7-1.9-1.1-3.6-1.1c-0.8,0-1.5,0.1-2.1,0.2c-0.6,0.2-1.2,0.4-1.7,0.7
		c-0.5,0.3-0.9,0.8-1.2,1.3c-0.3,0.5-0.5,1.2-0.6,2.1H247c0.1-1.2,0.3-2.1,0.8-2.9c0.5-0.8,1-1.5,1.7-1.9c0.7-0.5,1.5-0.9,2.4-1.1
		c0.9-0.2,1.9-0.4,2.9-0.4c0.9,0,1.9,0.1,2.7,0.3s1.5,0.5,2.2,1c0.6,0.5,1.1,1.1,1.5,1.9c0.4,0.8,0.5,1.7,0.5,2.8v10.4
		c0,0.9,0.2,1.4,0.5,1.6c0.3,0.2,0.9,0.2,1.9-0.2v1.7c-0.2,0.1-0.4,0.2-0.8,0.2c-0.3,0.1-0.6,0.2-1,0.2c-0.3,0-0.7,0-1-0.1
		c-0.4-0.1-0.7-0.2-0.9-0.4c-0.2-0.2-0.4-0.4-0.5-0.7s-0.2-0.5-0.3-0.9s-0.1-0.6-0.1-1c-0.9,1-2,1.9-3.2,2.4
		c-1.2,0.5-2.5,0.8-3.9,0.8c-0.9,0-1.6-0.1-2.4-0.3c-0.8-0.2-1.5-0.5-2-1c-0.6-0.5-1.1-1-1.4-1.7c-0.3-0.7-0.5-1.5-0.5-2.4
		c0-3.2,2.2-5.2,6.6-5.7L255.8,481.3z M259.6,482.5c-0.9,0.4-1.9,0.6-2.9,0.8c-0.9,0.2-1.9,0.2-2.9,0.3c-1.7,0.2-3,0.5-3.9,1.2
		c-0.9,0.6-1.4,1.6-1.4,2.9c0,0.6,0.2,1.1,0.4,1.5c0.2,0.5,0.5,0.8,0.9,1.1s0.9,0.5,1.3,0.6c0.5,0.2,1,0.2,1.5,0.2
		c0.9,0,1.8-0.1,2.5-0.3c0.9-0.2,1.5-0.5,2.2-1c0.6-0.5,1.2-1,1.5-1.7s0.6-1.5,0.6-2.5L259.6,482.5L259.6,482.5z"/>
	<path fill="#FFFFFF" d="M269.8,492.4h-2.2v-19.1h2.2v2.6c0.9-0.9,1.8-1.7,2.8-2.3c0.9-0.6,2.1-0.9,3.4-0.9c1.2,0,2.2,0.2,3.2,0.6
		s1.9,1.1,2.5,2.1c0.5,0.7,0.8,1.4,0.9,2.1s0.2,1.5,0.2,2.2v12.5h-2.2v-12.4c0-1.7-0.4-3-1.2-3.9c-0.8-0.9-2-1.3-3.8-1.3
		c-0.7,0-1.3,0.1-1.9,0.3c-0.5,0.2-1.1,0.5-1.5,0.9c-0.5,0.3-0.9,0.8-1.2,1.2c-0.3,0.5-0.5,0.9-0.8,1.4c-0.2,0.6-0.4,1.2-0.4,1.8
		c-0.1,0.5-0.1,1.2-0.1,1.9L269.8,492.4L269.8,492.4z"/>
	<path fill="#FFFFFF" d="M290.2,492.4H288v-19.1h2.2v2.6c0.9-0.9,1.8-1.7,2.8-2.3c0.9-0.6,2.1-0.9,3.4-0.9c1.2,0,2.2,0.2,3.2,0.6
		s1.9,1.1,2.5,2.1c0.5,0.7,0.8,1.4,0.9,2.1s0.2,1.5,0.2,2.2v12.5H301v-12.4c0-1.7-0.4-3-1.2-3.9c-0.8-0.9-2-1.3-3.8-1.3
		c-0.7,0-1.3,0.1-1.9,0.3c-0.5,0.2-1.1,0.5-1.5,0.9c-0.5,0.3-0.9,0.8-1.2,1.2c-0.3,0.5-0.5,0.9-0.8,1.4c-0.2,0.6-0.4,1.2-0.4,1.8
		c-0.1,0.5-0.1,1.2-0.1,1.9L290.2,492.4L290.2,492.4z"/>
	<path fill="#FFFFFF" d="M308.7,469.2v-3.2h2.4v3.2H308.7z M308.9,492.4v-19.1h2.2v19.1H308.9z"/>
	<path fill="#FFFFFF" d="M318.9,492.4h-2.2v-19.1h2.2v2.6c0.9-0.9,1.8-1.7,2.8-2.3c0.9-0.6,2.1-0.9,3.4-0.9c1.2,0,2.2,0.2,3.2,0.6
		s1.9,1.1,2.5,2.1c0.5,0.7,0.8,1.4,0.9,2.1c0.1,0.7,0.2,1.5,0.2,2.2v12.5h-2.2v-12.4c0-1.7-0.4-3-1.2-3.9s-2-1.3-3.8-1.3
		c-0.7,0-1.3,0.1-1.9,0.3c-0.5,0.2-1.1,0.5-1.5,0.9c-0.5,0.3-0.9,0.8-1.2,1.2c-0.3,0.5-0.5,0.9-0.8,1.4c-0.2,0.6-0.4,1.2-0.4,1.8
		c-0.1,0.5-0.1,1.2-0.1,1.9L318.9,492.4L318.9,492.4z"/>
	<path fill="#FFFFFF" d="M351.9,473.3h2.2v17.2c0,1.3-0.2,2.5-0.4,3.6s-0.7,2.2-1.4,3.1c-0.7,0.9-1.5,1.6-2.7,2.1
		c-1.2,0.5-2.6,0.8-4.5,0.8c-1.4,0-2.6-0.2-3.6-0.5c-1-0.4-1.9-0.8-2.5-1.3c-0.6-0.5-1.2-1.2-1.5-1.8s-0.5-1.2-0.5-1.9h2.4
		c0.2,0.7,0.5,1.3,0.8,1.8c0.4,0.5,0.8,0.8,1.3,1.1c0.5,0.2,1.1,0.5,1.7,0.5c0.6,0.1,1.2,0.2,1.9,0.2c1.5,0,2.7-0.2,3.6-0.8
		c0.9-0.5,1.6-1.2,2.1-2c0.5-0.9,0.8-1.8,0.9-2.9c0.2-1.1,0.2-2.2,0.2-3.2c-0.7,1.2-1.7,2.1-2.9,2.7c-1.2,0.6-2.5,0.9-3.9,0.9
		c-1.5,0-2.7-0.3-3.8-0.9c-1.1-0.5-1.9-1.3-2.6-2.2c-0.7-0.9-1.2-2-1.5-3.2c-0.3-1.2-0.5-2.5-0.5-3.9s0.2-2.7,0.5-3.9
		c0.3-1.2,0.9-2.3,1.5-3.2c0.7-0.9,1.6-1.6,2.7-2.1c1.1-0.5,2.4-0.8,3.9-0.8c0.6,0,1.2,0.1,1.9,0.2c0.6,0.2,1.2,0.4,1.9,0.8
		c0.6,0.3,1.2,0.7,1.6,1.2c0.5,0.5,0.9,1.1,1.2,1.6h0.1L351.9,473.3L351.9,473.3z M351.9,483c0-1.2-0.2-2.2-0.4-3.2
		c-0.3-1-0.7-1.9-1.2-2.5c-0.5-0.7-1.2-1.3-2-1.7s-1.7-0.6-2.8-0.6c-0.9,0-1.8,0.2-2.5,0.5s-1.5,0.9-2.1,1.5
		c-0.6,0.6-1.1,1.4-1.4,2.3c-0.3,0.9-0.5,2-0.5,3.2c-0.1,1.2,0.1,2.3,0.3,3.4c0.2,1.1,0.6,1.9,1.2,2.8c0.5,0.8,1.2,1.4,2.1,1.9
		c0.9,0.5,1.9,0.7,3,0.7c1,0,1.9-0.2,2.7-0.6c0.8-0.5,1.5-1,2-1.7s1-1.5,1.2-2.6C351.7,485.1,351.9,484.1,351.9,483z"/>
	<path fill="#FFFFFF" d="M371.3,483.4c0,1,0.2,2,0.4,2.9c0.2,0.9,0.7,1.7,1.2,2.4c0.5,0.7,1.2,1.2,2,1.6c0.8,0.4,1.8,0.6,2.8,0.6
		c1.5,0,2.7-0.4,3.7-1.2c1-0.8,1.7-1.9,2.1-3.2h2.5c-0.2,0.9-0.6,1.8-1.1,2.5c-0.5,0.8-1,1.5-1.6,2c-0.7,0.5-1.5,1-2.4,1.3
		c-0.9,0.3-1.9,0.5-3.2,0.5c-1.5,0-2.9-0.2-3.9-0.8c-1.1-0.5-2-1.2-2.7-2.1c-0.7-0.9-1.2-1.9-1.6-3.2c-0.3-1.2-0.5-2.5-0.5-3.9
		c0-1.4,0.2-2.7,0.6-3.9c0.4-1.2,1-2.3,1.7-3.2c0.8-0.9,1.7-1.6,2.8-2.2c1.1-0.5,2.3-0.8,3.7-0.8c2.6,0,4.7,0.9,6.2,2.7
		c1.5,1.8,2.2,4.4,2.2,7.9L371.3,483.4L371.3,483.4z M383.7,481.6c0-0.9-0.2-1.8-0.4-2.6s-0.6-1.5-1.2-2.2c-0.5-0.6-1.2-1.1-1.9-1.5
		c-0.8-0.4-1.6-0.5-2.6-0.5c-1,0-1.9,0.2-2.6,0.5c-0.8,0.4-1.4,0.9-1.9,1.5c-0.5,0.6-0.9,1.3-1.2,2.2c-0.3,0.8-0.5,1.7-0.6,2.5
		L383.7,481.6L383.7,481.6z"/>
	<path fill="#FFFFFF" d="M397,484.2l-6,8.3h-2.7l7.3-9.9l-6.7-9.2h2.7l5.3,7.6l5.4-7.6h2.8l-6.9,9.2l7.2,9.9h-2.6L397,484.2z"/>
	<path fill="#FFFFFF" d="M411.3,500h-2.2v-26.6h2.2v3.3h0.1c0.3-0.6,0.7-1.2,1.2-1.6c0.5-0.5,1.1-0.9,1.6-1.2
		c0.6-0.3,1.2-0.5,1.9-0.8c0.6-0.2,1.2-0.2,1.9-0.2c1.5,0,2.9,0.2,3.9,0.8c1.1,0.5,1.9,1.2,2.7,2.1c0.7,0.9,1.2,1.9,1.5,3.2
		c0.3,1.2,0.5,2.5,0.5,3.9c0,1.3-0.2,2.6-0.5,3.9c-0.3,1.2-0.8,2.3-1.5,3.2c-0.7,0.9-1.6,1.6-2.6,2.2c-1.1,0.5-2.3,0.9-3.8,0.9
		c-1.4,0-2.6-0.3-3.9-0.9c-1.2-0.6-2.2-1.5-2.9-2.7L411.3,500L411.3,500z M411.3,483c0,1.1,0.2,2.1,0.5,3.1c0.3,1,0.7,1.9,1.2,2.5
		c0.5,0.7,1.2,1.3,2,1.7c0.8,0.5,1.7,0.6,2.7,0.6c1.2,0,2.1-0.2,2.9-0.7s1.5-1.1,2.1-1.9c0.5-0.8,0.9-1.7,1.2-2.8
		c0.2-1.1,0.3-2.2,0.3-3.4c0-1.2-0.2-2.2-0.5-3.2c-0.3-0.9-0.8-1.7-1.4-2.3c-0.6-0.6-1.3-1.2-2.1-1.5c-0.8-0.3-1.6-0.5-2.5-0.5
		c-1,0-1.9,0.2-2.8,0.6c-0.8,0.4-1.5,1-2,1.7c-0.5,0.7-0.9,1.5-1.2,2.5C411.5,480.8,411.3,481.8,411.3,483z"/>
	<path fill="#FFFFFF" d="M432.7,483.4c0,1,0.2,2,0.4,2.9c0.2,0.9,0.7,1.7,1.2,2.4c0.5,0.7,1.2,1.2,2,1.6c0.8,0.4,1.8,0.6,2.8,0.6
		c1.5,0,2.7-0.4,3.7-1.2c1-0.8,1.7-1.9,2.1-3.2h2.5c-0.2,0.9-0.6,1.8-1.1,2.5c-0.5,0.8-1,1.5-1.6,2c-0.7,0.5-1.5,1-2.4,1.3
		c-0.9,0.3-1.9,0.5-3.2,0.5c-1.5,0-2.9-0.2-3.9-0.8c-1.1-0.5-2-1.2-2.7-2.1c-0.7-0.9-1.2-1.9-1.6-3.2c-0.3-1.2-0.5-2.5-0.5-3.9
		c0-1.4,0.2-2.7,0.6-3.9c0.4-1.2,1-2.3,1.7-3.2c0.8-0.9,1.7-1.6,2.8-2.2c1.1-0.5,2.3-0.8,3.7-0.8c2.6,0,4.7,0.9,6.2,2.7
		c1.5,1.8,2.2,4.4,2.2,7.9L432.7,483.4L432.7,483.4z M445.2,481.6c0-0.9-0.2-1.8-0.4-2.6s-0.6-1.5-1.2-2.2c-0.5-0.6-1.2-1.1-1.9-1.5
		c-0.8-0.4-1.6-0.5-2.6-0.5c-1,0-1.9,0.2-2.6,0.5c-0.8,0.4-1.4,0.9-1.9,1.5c-0.5,0.6-0.9,1.3-1.2,2.2c-0.3,0.8-0.5,1.7-0.6,2.5
		L445.2,481.6L445.2,481.6z"/>
	<path fill="#FFFFFF" d="M454.2,492.4H452v-19.1h2.2v3.6h0.1c0.6-1.5,1.4-2.5,2.4-3.2c1-0.6,2.2-0.9,3.9-0.9v2.4
		c-1.2,0-2.3,0.2-3.1,0.6c-0.8,0.4-1.5,1-1.9,1.7s-0.8,1.5-1,2.5c-0.2,1-0.3,2-0.3,3L454.2,492.4L454.2,492.4z"/>
	<path fill="#FFFFFF" d="M464.3,469.2v-3.2h2.4v3.2H464.3z M464.5,492.4v-19.1h2.2v19.1H464.5z"/>
	<path fill="#FFFFFF" d="M473.7,483.4c0,1,0.2,2,0.4,2.9c0.2,0.9,0.7,1.7,1.2,2.4c0.5,0.7,1.2,1.2,2,1.6c0.8,0.4,1.8,0.6,2.8,0.6
		c1.5,0,2.7-0.4,3.7-1.2c1-0.8,1.7-1.9,2.1-3.2h2.5c-0.2,0.9-0.6,1.8-1.1,2.5c-0.5,0.8-1,1.5-1.6,2c-0.7,0.5-1.5,1-2.4,1.3
		c-0.9,0.3-1.9,0.5-3.2,0.5c-1.5,0-2.9-0.2-3.9-0.8c-1.1-0.5-2-1.2-2.7-2.1c-0.7-0.9-1.2-1.9-1.6-3.2c-0.3-1.2-0.5-2.5-0.5-3.9
		c0-1.4,0.2-2.7,0.6-3.9c0.4-1.2,1-2.3,1.7-3.2c0.8-0.9,1.7-1.6,2.8-2.2c1.1-0.5,2.3-0.8,3.7-0.8c2.6,0,4.7,0.9,6.2,2.7
		c1.5,1.8,2.2,4.4,2.2,7.9L473.7,483.4L473.7,483.4z M486.1,481.6c0-0.9-0.2-1.8-0.4-2.6s-0.6-1.5-1.2-2.2c-0.5-0.6-1.2-1.1-1.9-1.5
		c-0.8-0.4-1.6-0.5-2.6-0.5c-1,0-1.9,0.2-2.6,0.5c-0.8,0.4-1.4,0.9-1.9,1.5c-0.5,0.6-0.9,1.3-1.2,2.2c-0.3,0.8-0.5,1.7-0.6,2.5
		L486.1,481.6L486.1,481.6z"/>
	<path fill="#FFFFFF" d="M495,492.4h-2.2v-19.1h2.2v2.6c0.8-0.9,1.8-1.7,2.8-2.3c0.9-0.6,2.1-0.9,3.4-0.9c1.2,0,2.2,0.2,3.2,0.6
		s1.9,1.1,2.5,2.1c0.5,0.7,0.8,1.4,0.8,2.1c0.1,0.7,0.2,1.5,0.2,2.2v12.5h-2.2v-12.4c0-1.7-0.4-3-1.2-3.9s-2-1.3-3.8-1.3
		c-0.7,0-1.3,0.1-1.9,0.3c-0.5,0.2-1.1,0.5-1.5,0.9c-0.5,0.3-0.8,0.8-1.2,1.2c-0.3,0.5-0.5,0.9-0.8,1.4c-0.2,0.6-0.4,1.2-0.4,1.8
		c-0.1,0.5-0.1,1.2-0.1,1.9L495,492.4L495,492.4z"/>
	<path fill="#FFFFFF" d="M526.8,479.4c-0.4-1.4-1.1-2.6-2-3.3c-0.9-0.8-2.2-1.2-3.6-1.2c-1.2,0-2.1,0.2-2.9,0.7
		c-0.8,0.5-1.5,1.1-2,1.9c-0.5,0.8-0.9,1.6-1.2,2.6c-0.2,1-0.4,1.9-0.4,2.9c0,1,0.2,2,0.4,2.9s0.6,1.9,1.2,2.5
		c0.5,0.8,1.2,1.4,2,1.9c0.8,0.5,1.8,0.7,2.9,0.7c1.6,0,2.9-0.5,3.9-1.4c1-0.9,1.6-2.2,1.9-3.8h2.4c-0.2,1.1-0.5,2-0.9,2.9
		c-0.4,0.8-1,1.6-1.6,2.2c-0.7,0.6-1.5,1.1-2.4,1.5c-0.9,0.3-2,0.5-3.2,0.5c-1.5,0-2.9-0.2-3.9-0.8c-1.1-0.5-2-1.2-2.7-2.1
		c-0.7-0.9-1.2-1.9-1.5-3.2c-0.3-1.2-0.5-2.5-0.5-3.9c0-1.3,0.2-2.6,0.5-3.8c0.4-1.2,0.9-2.3,1.7-3.2s1.6-1.7,2.8-2.2
		c1.1-0.5,2.3-0.9,3.8-0.9c2.2,0,4,0.5,5.3,1.5c1.4,1.1,2.2,2.7,2.5,4.9L526.8,479.4L526.8,479.4z"/>
	<path fill="#FFFFFF" d="M535.1,483.4c0,1,0.2,2,0.4,2.9c0.2,0.9,0.7,1.7,1.2,2.4c0.5,0.7,1.2,1.2,2,1.6c0.8,0.4,1.8,0.6,2.8,0.6
		c1.5,0,2.7-0.4,3.7-1.2c1-0.8,1.7-1.9,2.1-3.2h2.5c-0.2,0.9-0.6,1.8-1.1,2.5c-0.5,0.8-1,1.5-1.6,2c-0.7,0.5-1.5,1-2.4,1.3
		c-0.9,0.3-1.9,0.5-3.2,0.5c-1.5,0-2.9-0.2-3.9-0.8c-1.1-0.5-2-1.2-2.7-2.1c-0.7-0.9-1.2-1.9-1.5-3.2c-0.3-1.2-0.5-2.5-0.5-3.9
		c0-1.4,0.2-2.7,0.6-3.9c0.4-1.2,1-2.3,1.7-3.2c0.7-0.9,1.7-1.6,2.8-2.2c1.1-0.5,2.3-0.8,3.7-0.8c2.6,0,4.7,0.9,6.2,2.7
		c1.5,1.8,2.2,4.4,2.2,7.9L535.1,483.4L535.1,483.4z M547.6,481.6c0-0.9-0.2-1.8-0.4-2.6s-0.6-1.5-1.2-2.2c-0.5-0.6-1.2-1.1-1.9-1.5
		c-0.8-0.4-1.6-0.5-2.6-0.5c-1,0-1.9,0.2-2.6,0.5c-0.8,0.4-1.4,0.9-1.9,1.5c-0.5,0.6-0.9,1.3-1.2,2.2c-0.3,0.8-0.5,1.7-0.6,2.5
		L547.6,481.6L547.6,481.6z"/>
</g>
<path fill="#FFFFFF" d="M340.5,354.4v-2.8h-1v-0.5h2.6v0.5h-1v2.8H340.5z M342.6,354.4v-3.2h0.9l0.9,2.4l0.9-2.4h0.9v3.2h-0.6v-2.7
	l-1,2.7h-0.4l-1-2.7v2.7H342.6z"/>
</svg>
