<?xml version="1.0" encoding="utf-8"?>
<!-- Generator: Adobe Illustrator 18.0.0, SVG Export Plug-In . SVG Version: 6.00 Build 0)  -->
<!DOCTYPE svg PUBLIC "-//W3C//DTD SVG 1.1//EN" "http://www.w3.org/Graphics/SVG/1.1/DTD/svg11.dtd">
<svg version="1.1" id="Layer_1" xmlns="http://www.w3.org/2000/svg" xmlns:xlink="http://www.w3.org/1999/xlink" x="0px" y="0px"
	 viewBox="0 196 612 391" enable-background="new 0 196 612 391" xml:space="preserve">
<g>
	<g>
		<path fill="#FFFFFF" d="M248.4,371.9c3.2-2.2,7.1-3.3,11.6-3.3c3.9,0,7.6,0.9,10.7,2.7c3.2,1.9,5.7,4.9,7.5,9
			c2-3.8,4.8-6.7,8.3-8.7c3.6-2,7.4-3,11.7-3c3.8,0,7.1,0.6,9.8,1.9c2.7,1.3,5,3,6.8,5.2c1.9,2.2,3.2,4.6,4,7.6
			c0.9,2.9,1.3,6,1.3,9.3V429h-11.7v-32.6c0-2.4-0.2-4.6-0.6-6.8s-1.1-4-2.1-5.7c-1-1.6-2.3-3-3.9-3.9c-1.6-1-3.8-1.5-6.3-1.5
			c-2.6,0-4.9,0.5-6.8,1.7c-1.9,1.1-3.5,2.6-4.6,4.3c-1.2,1.8-2.1,3.8-2.6,6c-0.5,2.2-0.8,4.5-0.8,6.8v31.8h-11.7v-35
			c0-2.3-0.2-4.4-0.6-6.3c-0.4-1.9-1.1-3.6-2.1-4.9c-1-1.4-2.2-2.5-3.9-3.2c-1.5-0.8-3.6-1.2-5.8-1.2c-4.3,0-7.9,1.8-10.7,5.3
			c-2.9,3.6-4.2,8.2-4.2,14.1v31.3h-11.7v-46.1c0-1.5-0.1-3.6-0.2-6.1c-0.1-2.5-0.2-4.6-0.4-6.6h11c0.2,1.5,0.3,3.2,0.4,5
			c0.1,1.9,0.2,3.4,0.2,4.6h0.4C242.7,376.8,245.1,374.1,248.4,371.9z"/>
		<path fill="#FFFFFF" d="M362.3,416.4h0.2l16.2-46.2h12.4l-28.5,72.7c-1,2.5-2.1,4.7-3.2,6.6c-1.2,1.9-2.5,3.6-4.1,4.9
			c-1.5,1.4-3.4,2.4-5.5,3.2c-2.1,0.8-4.6,1.1-7.5,1.1c-1.2,0-2.5-0.1-3.8-0.2c-1.3-0.2-2.5-0.4-3.9-0.7l1.1-10.3c2,0.7,3.9,1,5.8,1
			c3.1,0,5.3-0.8,6.8-2.5c1.5-1.7,2.9-4.1,4.1-7.3l3.7-9.8l-25.2-58.8h13.1L362.3,416.4z"/>
	</g>
	<polygon fill="#FFFFFF" points="369.9,317.6 361.4,311.9 370.5,307.4 379.7,302.8 379,313 378.4,323.2 	"/>
	<g>
		<path fill="#FFFFFF" d="M305.8,231.9c-90.6,0-164,73.4-164,164h26.3c0-76,61.7-137.7,137.7-137.7s137.7,61.7,137.7,137.7h26.3
			C469.7,305.4,396.3,231.9,305.8,231.9z"/>
		<path opacity="0.1" fill="#FFFFFF" enable-background="new    " d="M305.8,533.7c-76,0-137.7-61.7-137.7-137.7h-26.3
			c0,90.6,73.4,164,164,164s164-73.4,164-164h-26.3C443.5,472,381.8,533.7,305.8,533.7z"/>
	</g>
</g>
<path fill="#FFFFFF" d="M397.8,374.6v-6h-2.2v-1h5.6v1H399v6H397.8z M402.4,374.6v-7h1.9l2,5.2l1.9-5.2h1.9v7H409v-5.8l-2.2,5.8
	h-0.9l-2.2-5.8v5.8H402.4z"/>
</svg>
