<?xml version="1.0" encoding="utf-8"?>
<!-- Generator: Adobe Illustrator 18.0.0, SVG Export Plug-In . SVG Version: 6.00 Build 0)  -->
<!DOCTYPE svg PUBLIC "-//W3C//DTD SVG 1.1//EN" "http://www.w3.org/Graphics/SVG/1.1/DTD/svg11.dtd">
<svg version="1.1" id="Layer_1" xmlns="http://www.w3.org/2000/svg" xmlns:xlink="http://www.w3.org/1999/xlink" x="0px" y="0px"
	 viewBox="0 0 80 100" enable-background="new 0 0 80 100" xml:space="preserve">
<g>
	<linearGradient id="SVGID_1_" gradientUnits="userSpaceOnUse" x1="41.1609" y1="82.8516" x2="51.2859" y2="7.4766">
		<stop  offset="0" style="stop-color:#92529F"/>
		<stop  offset="0.3911" style="stop-color:#834C9D"/>
		<stop  offset="1" style="stop-color:#643F98"/>
	</linearGradient>
	<path fill="url(#SVGID_1_)" d="M59.7,77.6c0-2,0-5.3,0-7.3V55.1c0-2-1.4-2.8-3.2-1.8l-13.1,7.6c-1.7,1-4.6,2.7-6.4,3.7l-13.1,7.6
		c-1.7,1-1.7,2.7,0,3.7L37,83.3c1.7,1,4.6,2.7,6.4,3.7l13.1,7.6c1.7,1,3.2,0.2,3.2-1.8V77.6z"/>
	<linearGradient id="SVGID_2_" gradientUnits="userSpaceOnUse" x1="34.8118" y1="81.9987" x2="44.9368" y2="6.6237">
		<stop  offset="0" style="stop-color:#48ACE1"/>
		<stop  offset="0.5256" style="stop-color:#47AAE0"/>
		<stop  offset="0.715" style="stop-color:#45A3DB"/>
		<stop  offset="0.8499" style="stop-color:#4198D2"/>
		<stop  offset="0.9583" style="stop-color:#3C87C6"/>
		<stop  offset="1" style="stop-color:#397EC0"/>
	</linearGradient>
	<path fill="url(#SVGID_2_)" d="M59.7,29.5c0-2,0-5.3,0-7.3V6.9c0-2-1.4-2.8-3.2-1.8l-13.1,7.6c-1.7,1-4.6,2.7-6.4,3.7L23.8,24
		c-1.7,1-1.7,2.7,0,3.7L37,35.2c1.7,1,4.6,2.7,6.4,3.7l13.1,7.6c1.7,1,3.2,0.2,3.2-1.8V29.5z"/>
	<linearGradient id="SVGID_3_" gradientUnits="userSpaceOnUse" x1="16.0437" y1="79.4777" x2="26.1687" y2="4.1027">
		<stop  offset="0" style="stop-color:#BBD647"/>
		<stop  offset="0.2608" style="stop-color:#B8D547"/>
		<stop  offset="0.4566" style="stop-color:#AED248"/>
		<stop  offset="0.6314" style="stop-color:#9ECD49"/>
		<stop  offset="0.7936" style="stop-color:#87C64A"/>
		<stop  offset="0.946" style="stop-color:#6ABE4B"/>
		<stop  offset="1" style="stop-color:#5EBA4C"/>
	</linearGradient>
	<path fill="url(#SVGID_3_)" d="M0,46.2c0,2,0,5.3,0,7.3l0,18.6c0,2,1.4,2.8,3.2,1.8l16.1-9.3c1.7-1,4.6-2.7,6.4-3.7l16.1-9.3
		c1.7-1,1.7-2.7,0-3.7l-16.1-9.3c-1.7-1-4.6-2.7-6.4-3.7L3.2,25.8c-1.7-1-3.2-0.2-3.2,1.8L0,46.2z"/>
</g>
</svg>
