<?xml version="1.0" encoding="utf-8"?>
<!-- Generator: Adobe Illustrator 18.0.0, SVG Export Plug-In . SVG Version: 6.00 Build 0)  -->
<!DOCTYPE svg PUBLIC "-//W3C//DTD SVG 1.1//EN" "http://www.w3.org/Graphics/SVG/1.1/DTD/svg11.dtd">
<svg version="1.1" id="Layer_1" xmlns="http://www.w3.org/2000/svg" xmlns:xlink="http://www.w3.org/1999/xlink" x="0px" y="0px"
	 viewBox="0 0 80 100" enable-background="new 0 0 80 100" xml:space="preserve">
<g>
	<path fill="#858585" d="M59.7,77.6c0-2,0-5.3,0-7.3V55.1c0-2-1.4-2.8-3.2-1.8l-13.1,7.6c-1.7,1-4.6,2.7-6.4,3.7l-13.1,7.6
		c-1.7,1-1.7,2.7,0,3.7L37,83.3c1.7,1,4.6,2.7,6.4,3.7l13.1,7.6c1.7,1,3.2,0.2,3.2-1.8V77.6z"/>
	<path fill="#858585" d="M59.7,29.5c0-2,0-5.3,0-7.3V6.9c0-2-1.4-2.8-3.2-1.8l-13.1,7.6c-1.7,1-4.6,2.7-6.4,3.7L23.8,24
		c-1.7,1-1.7,2.7,0,3.7L37,35.2c1.7,1,4.6,2.7,6.4,3.7l13.1,7.6c1.7,1,3.2,0.2,3.2-1.8V29.5z"/>
	<path fill="#858585" d="M0,46.2c0,2,0,5.3,0,7.3l0,18.6c0,2,1.4,2.8,3.2,1.8l16.1-9.3c1.7-1,4.6-2.7,6.4-3.7l16.1-9.3
		c1.7-1,1.7-2.7,0-3.7l-16.1-9.3c-1.7-1-4.6-2.7-6.4-3.7L3.2,25.8c-1.7-1-3.2-0.2-3.2,1.8L0,46.2z"/>
</g>
</svg>
