<?xml version="1.0" encoding="utf-8"?>
<!-- Generator: Adobe Illustrator 18.0.0, SVG Export Plug-In . SVG Version: 6.00 Build 0)  -->
<!DOCTYPE svg PUBLIC "-//W3C//DTD SVG 1.1//EN" "http://www.w3.org/Graphics/SVG/1.1/DTD/svg11.dtd">
<svg version="1.1" id="Layer_1" xmlns="http://www.w3.org/2000/svg" xmlns:xlink="http://www.w3.org/1999/xlink" x="0px" y="0px"
	 viewBox="0 0 792 612" enable-background="new 0 0 792 612" xml:space="preserve">
<text transform="matrix(1 0 0 1 117.63 381.0977)"><tspan x="0" y="0" fill="#858585" font-family="'AktivGrotesk-Regular'" font-size="91.0291" letter-spacing="-3">M</tspan><tspan x="73.4" y="0" fill="#858585" font-family="'AktivGrotesk-Regular'" font-size="91.0291" letter-spacing="-1">o</tspan><tspan x="126.3" y="0" fill="#858585" font-family="'AktivGrotesk-Regular'" font-size="91.0291">neyGuide</tspan></text>
<g>
	<g>
		<linearGradient id="SVGID_1_" gradientUnits="userSpaceOnUse" x1="283.1929" y1="255.775" x2="368.2995" y2="255.775">
			<stop  offset="0" style="stop-color:#92529F"/>
			<stop  offset="0.3911" style="stop-color:#834C9D"/>
			<stop  offset="1" style="stop-color:#643F98"/>
		</linearGradient>
		<path fill="url(#SVGID_1_)" d="M322.1,292.9c2,0,5.3,0,7.3,0H366c2,0,2.8-1.4,1.8-3.2L349.6,258c-1-1.7-2.7-4.6-3.7-6.4L327.6,220
			c-1-1.7-2.7-1.7-3.7,0l-18.3,31.7c-1,1.7-2.7,4.6-3.7,6.4l-18.3,31.7c-1,1.7-0.2,3.2,1.8,3.2H322.1z"/>
	</g>
	<g>
		<linearGradient id="SVGID_2_" gradientUnits="userSpaceOnUse" x1="377.0943" y1="255.775" x2="462.2009" y2="255.775">
			<stop  offset="0" style="stop-color:#48ACE1"/>
			<stop  offset="0.5256" style="stop-color:#47AAE0"/>
			<stop  offset="0.715" style="stop-color:#45A3DB"/>
			<stop  offset="0.8499" style="stop-color:#4198D2"/>
			<stop  offset="0.9583" style="stop-color:#3C87C6"/>
			<stop  offset="1" style="stop-color:#397EC0"/>
		</linearGradient>
		<path fill="url(#SVGID_2_)" d="M416,292.9c2,0,5.3,0,7.3,0h36.6c2,0,2.8-1.4,1.8-3.2L443.5,258c-1-1.7-2.7-4.6-3.7-6.4L421.5,220
			c-1-1.7-2.7-1.7-3.7,0l-18.3,31.7c-1,1.7-2.7,4.6-3.7,6.4l-18.3,31.7c-1,1.7-0.2,3.2,1.8,3.2H416z"/>
	</g>
	<g>
		<linearGradient id="SVGID_3_" gradientUnits="userSpaceOnUse" x1="323.4849" y1="219.3917" x2="421.9089" y2="219.3917">
			<stop  offset="0" style="stop-color:#BBD647"/>
			<stop  offset="0.2608" style="stop-color:#B8D547"/>
			<stop  offset="0.4566" style="stop-color:#AED248"/>
			<stop  offset="0.6314" style="stop-color:#9ECD49"/>
			<stop  offset="0.7936" style="stop-color:#87C64A"/>
			<stop  offset="0.946" style="stop-color:#6ABE4B"/>
			<stop  offset="1" style="stop-color:#5EBA4C"/>
		</linearGradient>
		<path fill="url(#SVGID_3_)" d="M376.4,176.5c-2,0-5.3,0-7.3,0h-43.3c-2,0-2.8,1.4-1.8,3.2l21.6,37.5c1,1.7,2.7,4.6,3.7,6.4
			l21.6,37.5c1,1.7,2.7,1.7,3.7,0l21.6-37.5c1-1.7,2.7-4.6,3.7-6.4l21.6-37.5c1-1.7,0.2-3.2-1.8-3.2H376.4z"/>
	</g>
</g>
<g>
	<linearGradient id="SVGID_4_" gradientUnits="userSpaceOnUse" x1="440.1249" y1="412.3041" x2="622.516" y2="433.3898">
		<stop  offset="0" style="stop-color:#48ACE1"/>
		<stop  offset="0.5256" style="stop-color:#47AAE0"/>
		<stop  offset="0.715" style="stop-color:#45A3DB"/>
		<stop  offset="0.8499" style="stop-color:#4198D2"/>
		<stop  offset="0.9583" style="stop-color:#3C87C6"/>
		<stop  offset="1" style="stop-color:#397EC0"/>
	</linearGradient>
	<path fill="url(#SVGID_4_)" d="M427.5,417.1c0.3,1.8,1.1,3.1,2.3,3.8c1.2,0.7,2.9,1.1,5,1.1c2.2,0,3.8-0.4,4.7-1.1
		c0.9-0.8,1.4-1.8,1.4-3c0-0.5-0.1-1-0.2-1.4s-0.3-0.9-0.7-1.2c-0.3-0.4-0.8-0.7-1.4-0.9c-0.6-0.3-1.4-0.5-2.4-0.7l-3.3-0.5
		c-1.5-0.2-2.8-0.5-3.9-0.9c-1.1-0.4-2-0.8-2.8-1.4c-0.8-0.6-1.4-1.3-1.7-2.2c-0.4-0.9-0.6-1.9-0.6-3.1s0.3-2.3,0.8-3.2
		c0.5-0.9,1.2-1.7,2.2-2.4c0.9-0.7,2-1.2,3.3-1.5c1.3-0.4,2.6-0.5,4.1-0.5c1.9,0,3.5,0.2,4.7,0.6c1.3,0.4,2.3,0.9,3.1,1.5
		c0.8,0.6,1.4,1.4,1.9,2.3c0.4,0.9,0.8,1.8,1,2.8l-4,0.7c-0.2-0.7-0.5-1.3-0.8-1.9c-0.3-0.5-0.7-1-1.2-1.3c-0.5-0.4-1.1-0.6-1.8-0.8
		c-0.7-0.2-1.6-0.3-2.7-0.3c-1.2,0-2.2,0.1-3,0.3c-0.8,0.2-1.5,0.5-1.9,0.9c-0.5,0.4-0.8,0.8-1,1.2s-0.3,0.9-0.3,1.4
		c0,0.5,0.1,1,0.2,1.4c0.1,0.4,0.4,0.8,0.8,1.1c0.4,0.3,0.9,0.6,1.5,0.8c0.6,0.2,1.5,0.4,2.5,0.6l3.8,0.6c3.1,0.5,5.2,1.4,6.6,2.6
		c1.3,1.2,2,3.1,2,5.4c0,1.1-0.2,2.1-0.7,3c-0.4,0.9-1.1,1.7-2,2.4c-0.9,0.7-2,1.2-3.3,1.6c-1.3,0.4-2.8,0.6-4.6,0.6
		c-1.6,0-3-0.2-4.4-0.5c-1.4-0.3-2.6-0.8-3.6-1.4c-1-0.7-1.9-1.5-2.5-2.6c-0.6-1.1-1-2.4-1.1-3.9H427.5z"/>
	<linearGradient id="SVGID_5_" gradientUnits="userSpaceOnUse" x1="440.4958" y1="409.0959" x2="622.8869" y2="430.1815">
		<stop  offset="0" style="stop-color:#48ACE1"/>
		<stop  offset="0.5256" style="stop-color:#47AAE0"/>
		<stop  offset="0.715" style="stop-color:#45A3DB"/>
		<stop  offset="0.8499" style="stop-color:#4198D2"/>
		<stop  offset="0.9583" style="stop-color:#3C87C6"/>
		<stop  offset="1" style="stop-color:#397EC0"/>
	</linearGradient>
	<path fill="url(#SVGID_5_)" d="M462.7,425.5c-2,0-3.7-0.3-5.3-1c-1.5-0.6-2.9-1.5-3.9-2.7c-1.1-1.2-1.9-2.6-2.5-4.3
		c-0.6-1.7-0.9-3.6-0.9-5.7c0-2.1,0.3-4,0.9-5.7c0.6-1.7,1.5-3.2,2.6-4.4c1.1-1.2,2.4-2.1,4-2.8c1.6-0.7,3.3-1,5.2-1
		c1.9,0,3.7,0.3,5.2,1c1.5,0.6,2.9,1.6,4,2.7c1.1,1.2,1.9,2.6,2.5,4.3c0.6,1.7,0.9,3.6,0.9,5.7c0,2.1-0.3,4.1-0.9,5.8
		c-0.6,1.7-1.4,3.2-2.5,4.4s-2.4,2.1-4,2.8C466.4,425.2,464.7,425.5,462.7,425.5z M462.8,421.9c1.4,0,2.6-0.3,3.6-0.8
		c1-0.5,1.8-1.2,2.5-2.1c0.7-0.9,1.1-2,1.4-3.3c0.3-1.3,0.5-2.6,0.5-4.2c0-1.5-0.1-2.8-0.5-4.1c-0.3-1.2-0.8-2.3-1.4-3.2
		c-0.7-0.9-1.5-1.6-2.5-2.1c-1-0.5-2.2-0.8-3.6-0.8c-1.4,0-2.6,0.3-3.6,0.8c-1,0.5-1.8,1.2-2.5,2.1c-0.7,0.9-1.1,2-1.4,3.2
		c-0.3,1.2-0.5,2.6-0.5,4.1s0.1,2.9,0.5,4.1c0.3,1.2,0.8,2.3,1.4,3.2c0.6,0.9,1.5,1.6,2.5,2.1C460.2,421.6,461.4,421.9,462.8,421.9z
		"/>
	<linearGradient id="SVGID_6_" gradientUnits="userSpaceOnUse" x1="441.3369" y1="401.8209" x2="623.728" y2="422.9066">
		<stop  offset="0" style="stop-color:#48ACE1"/>
		<stop  offset="0.5256" style="stop-color:#47AAE0"/>
		<stop  offset="0.715" style="stop-color:#45A3DB"/>
		<stop  offset="0.8499" style="stop-color:#4198D2"/>
		<stop  offset="0.9583" style="stop-color:#3C87C6"/>
		<stop  offset="1" style="stop-color:#397EC0"/>
	</linearGradient>
	<path fill="url(#SVGID_6_)" d="M481.4,388.7h4.4v36h-4.4V388.7z"/>
	<linearGradient id="SVGID_7_" gradientUnits="userSpaceOnUse" x1="441.0347" y1="404.4351" x2="623.4257" y2="425.5207">
		<stop  offset="0" style="stop-color:#48ACE1"/>
		<stop  offset="0.5256" style="stop-color:#47AAE0"/>
		<stop  offset="0.715" style="stop-color:#45A3DB"/>
		<stop  offset="0.8499" style="stop-color:#4198D2"/>
		<stop  offset="0.9583" style="stop-color:#3C87C6"/>
		<stop  offset="1" style="stop-color:#397EC0"/>
	</linearGradient>
	<path fill="url(#SVGID_7_)" d="M492.5,398.6h4.4v16.4c0,2.4,0.4,4.1,1.2,5.1c0.8,1,2.1,1.5,3.9,1.5c1.9,0,3.7-0.7,5.3-2.1
		c0.8-0.7,1.5-1.5,1.9-2.3c0.4-0.8,0.7-1.9,0.7-3.2v-15.4h4.4v26.1h-4.3v-4c-1.3,1.7-2.7,2.9-4.1,3.7c-1.5,0.8-3.1,1.2-4.8,1.2
		c-3,0-5.1-0.8-6.4-2.4c-1.3-1.6-2-4-2-7.2V398.6z"/>
	<linearGradient id="SVGID_8_" gradientUnits="userSpaceOnUse" x1="441.7272" y1="398.4443" x2="624.1183" y2="419.5299">
		<stop  offset="0" style="stop-color:#48ACE1"/>
		<stop  offset="0.5256" style="stop-color:#47AAE0"/>
		<stop  offset="0.715" style="stop-color:#45A3DB"/>
		<stop  offset="0.8499" style="stop-color:#4198D2"/>
		<stop  offset="0.9583" style="stop-color:#3C87C6"/>
		<stop  offset="1" style="stop-color:#397EC0"/>
	</linearGradient>
	<path fill="url(#SVGID_8_)" d="M522.4,402.1h-4v-3.5h4v-7.1h4.4v7.1h6.9v3.5h-6.9v15.3c0,1.3,0.3,2.3,0.9,3.1
		c0.6,0.8,1.4,1.2,2.6,1.2c0.7,0,1.4-0.1,1.9-0.2c0.6-0.1,1.1-0.2,1.5-0.4l0.8,3.4c-0.7,0.2-1.4,0.4-2.2,0.6s-1.7,0.2-2.8,0.2
		c-1.5,0-2.7-0.2-3.6-0.7c-0.9-0.4-1.6-1.1-2.2-1.9c-0.5-0.8-0.9-1.8-1.1-2.9c-0.2-1.1-0.3-2.3-0.3-3.6V402.1z"/>
	<linearGradient id="SVGID_9_" gradientUnits="userSpaceOnUse" x1="442.0909" y1="395.2984" x2="624.482" y2="416.3841">
		<stop  offset="0" style="stop-color:#48ACE1"/>
		<stop  offset="0.5256" style="stop-color:#47AAE0"/>
		<stop  offset="0.715" style="stop-color:#45A3DB"/>
		<stop  offset="0.8499" style="stop-color:#4198D2"/>
		<stop  offset="0.9583" style="stop-color:#3C87C6"/>
		<stop  offset="1" style="stop-color:#397EC0"/>
	</linearGradient>
	<path fill="url(#SVGID_9_)" d="M538.4,388.7h4.7v5.1h-4.7V388.7z M538.5,398.6h4.4v26.1h-4.4V398.6z"/>
	<linearGradient id="SVGID_10_" gradientUnits="userSpaceOnUse" x1="441.7979" y1="397.8328" x2="624.189" y2="418.9185">
		<stop  offset="0" style="stop-color:#48ACE1"/>
		<stop  offset="0.5256" style="stop-color:#47AAE0"/>
		<stop  offset="0.715" style="stop-color:#45A3DB"/>
		<stop  offset="0.8499" style="stop-color:#4198D2"/>
		<stop  offset="0.9583" style="stop-color:#3C87C6"/>
		<stop  offset="1" style="stop-color:#397EC0"/>
	</linearGradient>
	<path fill="url(#SVGID_10_)" d="M561.5,425.5c-2,0-3.7-0.3-5.3-1s-2.9-1.5-3.9-2.7c-1.1-1.2-1.9-2.6-2.5-4.3
		c-0.6-1.7-0.9-3.6-0.9-5.7c0-2.1,0.3-4,0.9-5.7c0.6-1.7,1.5-3.2,2.6-4.4s2.4-2.1,4-2.8c1.6-0.7,3.3-1,5.2-1c1.9,0,3.7,0.3,5.2,1
		c1.5,0.6,2.9,1.6,4,2.7c1.1,1.2,1.9,2.6,2.5,4.3c0.6,1.7,0.9,3.6,0.9,5.7c0,2.1-0.3,4.1-0.9,5.8c-0.6,1.7-1.4,3.2-2.5,4.4
		c-1.1,1.2-2.4,2.1-4,2.8C565.2,425.2,563.4,425.5,561.5,425.5z M561.5,421.9c1.4,0,2.6-0.3,3.6-0.8c1-0.5,1.8-1.2,2.5-2.1
		c0.6-0.9,1.1-2,1.4-3.3c0.3-1.3,0.5-2.6,0.5-4.2c0-1.5-0.2-2.8-0.5-4.1c-0.3-1.2-0.8-2.3-1.4-3.2c-0.7-0.9-1.5-1.6-2.5-2.1
		c-1-0.5-2.2-0.8-3.6-0.8c-1.4,0-2.6,0.3-3.6,0.8c-1,0.5-1.8,1.2-2.5,2.1c-0.7,0.9-1.1,2-1.4,3.2c-0.3,1.2-0.5,2.6-0.5,4.1
		s0.1,2.9,0.5,4.1c0.3,1.2,0.8,2.3,1.4,3.2c0.6,0.9,1.5,1.6,2.5,2.1C558.9,421.6,560.1,421.9,561.5,421.9z"/>
	<linearGradient id="SVGID_11_" gradientUnits="userSpaceOnUse" x1="442.1827" y1="394.5047" x2="624.5737" y2="415.5904">
		<stop  offset="0" style="stop-color:#48ACE1"/>
		<stop  offset="0.5256" style="stop-color:#47AAE0"/>
		<stop  offset="0.715" style="stop-color:#45A3DB"/>
		<stop  offset="0.8499" style="stop-color:#4198D2"/>
		<stop  offset="0.9583" style="stop-color:#3C87C6"/>
		<stop  offset="1" style="stop-color:#397EC0"/>
	</linearGradient>
	<path fill="url(#SVGID_11_)" d="M580,398.6h4.3v4c1.3-1.7,2.7-2.9,4.2-3.7c1.5-0.7,3.2-1.1,4.9-1.1c3,0,5.1,0.8,6.6,2.4
		c1.4,1.6,2.1,4,2.1,7.1v17.3h-4.4v-16.5c0-2.4-0.4-4.1-1.3-5.1c-0.9-1-2.2-1.5-4-1.5c-1,0-1.9,0.2-2.9,0.5c-1,0.3-1.8,0.9-2.6,1.6
		c-0.8,0.7-1.5,1.5-1.9,2.3c-0.4,0.8-0.7,1.9-0.7,3.2v15.4H580V398.6z"/>
	<linearGradient id="SVGID_12_" gradientUnits="userSpaceOnUse" x1="442.5523" y1="391.3072" x2="624.9434" y2="412.3929">
		<stop  offset="0" style="stop-color:#48ACE1"/>
		<stop  offset="0.5256" style="stop-color:#47AAE0"/>
		<stop  offset="0.715" style="stop-color:#45A3DB"/>
		<stop  offset="0.8499" style="stop-color:#4198D2"/>
		<stop  offset="0.9583" style="stop-color:#3C87C6"/>
		<stop  offset="1" style="stop-color:#397EC0"/>
	</linearGradient>
	<path fill="url(#SVGID_12_)" d="M611.6,417.1c0.3,1.8,1.1,3.1,2.3,3.8c1.2,0.7,2.9,1.1,5,1.1c2.2,0,3.8-0.4,4.7-1.1
		c0.9-0.8,1.4-1.8,1.4-3c0-0.5-0.1-1-0.2-1.4s-0.3-0.9-0.7-1.2c-0.3-0.4-0.8-0.7-1.4-0.9c-0.6-0.3-1.4-0.5-2.4-0.7l-3.3-0.5
		c-1.5-0.2-2.8-0.5-3.9-0.9c-1.1-0.4-2.1-0.8-2.8-1.4c-0.8-0.6-1.4-1.3-1.7-2.2c-0.4-0.9-0.6-1.9-0.6-3.1s0.3-2.3,0.8-3.2
		c0.5-0.9,1.2-1.7,2.2-2.4c0.9-0.7,2-1.2,3.3-1.5c1.3-0.4,2.6-0.5,4.1-0.5c1.9,0,3.5,0.2,4.7,0.6c1.3,0.4,2.3,0.9,3.1,1.5
		c0.8,0.6,1.4,1.4,1.9,2.3c0.4,0.9,0.8,1.8,1,2.8l-4,0.7c-0.2-0.7-0.5-1.3-0.8-1.9c-0.3-0.5-0.7-1-1.2-1.3c-0.5-0.4-1.1-0.6-1.8-0.8
		c-0.7-0.2-1.6-0.3-2.7-0.3c-1.2,0-2.2,0.1-3,0.3c-0.8,0.2-1.5,0.5-1.9,0.9c-0.5,0.4-0.8,0.8-1,1.2c-0.2,0.5-0.3,0.9-0.3,1.4
		c0,0.5,0.1,1,0.2,1.4c0.1,0.4,0.4,0.8,0.8,1.1c0.4,0.3,0.9,0.6,1.5,0.8c0.6,0.2,1.5,0.4,2.5,0.6l3.8,0.6c3.1,0.5,5.2,1.4,6.6,2.6
		c1.3,1.2,2,3.1,2,5.4c0,1.1-0.2,2.1-0.7,3c-0.4,0.9-1.1,1.7-2,2.4c-0.9,0.7-2,1.2-3.3,1.6c-1.3,0.4-2.8,0.6-4.6,0.6
		c-1.6,0-3-0.2-4.4-0.5c-1.4-0.3-2.6-0.8-3.6-1.4c-1-0.7-1.9-1.5-2.5-2.6c-0.6-1.1-1-2.4-1.1-3.9H611.6z"/>
</g>
<linearGradient id="SVGID_13_" gradientUnits="userSpaceOnUse" x1="551.3547" y1="396.4349" x2="676.9132" y2="399.4423">
	<stop  offset="0" style="stop-color:#48ACE1"/>
	<stop  offset="0.5256" style="stop-color:#47AAE0"/>
	<stop  offset="0.715" style="stop-color:#45A3DB"/>
	<stop  offset="0.8499" style="stop-color:#4198D2"/>
	<stop  offset="0.9583" style="stop-color:#3C87C6"/>
	<stop  offset="1" style="stop-color:#397EC0"/>
</linearGradient>
<path fill="url(#SVGID_13_)" d="M637.1,402.4V396h-2.3v-1.1h5.9v1.1h-2.3v6.4H637.1z M642,402.4v-7.5h2l2.1,5.5l2.1-5.5h2v7.5h-1.3
	v-6.2l-2.3,6.2h-0.9l-2.3-6.2v6.2H642z"/>
</svg>
