<?xml version="1.0" encoding="utf-8"?>
<!-- Generator: Adobe Illustrator 18.0.0, SVG Export Plug-In . SVG Version: 6.00 Build 0)  -->
<!DOCTYPE svg PUBLIC "-//W3C//DTD SVG 1.1//EN" "http://www.w3.org/Graphics/SVG/1.1/DTD/svg11.dtd">
<svg version="1.1" id="Layer_1" xmlns="http://www.w3.org/2000/svg" xmlns:xlink="http://www.w3.org/1999/xlink" x="0px" y="0px"
	 viewBox="0 0 525.3 249" style="enable-background:new 0 0 525.3 249;" xml:space="preserve">
<g>
	<path style="fill:#858585;" d="M454.9,79.6V53.7h-9.3v-4.3h23.9v4.3h-9.3v25.9H454.9z M474.8,79.6V49.3h8.2l8.5,22.2l8.3-22.2h8.2
		v30.2h-5.3V54.6l-9.5,24.9h-3.6l-9.5-24.9v24.9H474.8z"/>
	<g>
		<path style="fill:#858585;" d="M132.1,61.5h18V77c4.5-6.2,9.7-10.8,15.6-14.1c5.9-3.2,12.9-4.8,20.9-4.8c7.7,0,14.4,1.4,20.2,4.2
			c5.8,2.8,10.6,6.7,14.5,11.7c3.8,5,6.7,11,8.6,17.9c1.9,6.9,2.8,14.6,2.8,23c0,9-1.1,17-3.4,24.2c-2.2,7.2-5.5,13.3-9.7,18.4
			c-4.2,5-9.3,8.9-15.2,11.6c-5.9,2.7-12.6,4.1-20,4.1c-6.2,0-12.2-1.2-18.2-3.7c-5.9-2.4-11.3-6.8-16.1-13.1v54.1h-18.3V61.5z
			 M150.2,118.8c0,7,0.8,13,2.4,17.9c1.6,5,3.8,9.1,6.6,12.3c2.8,3.2,6.1,5.6,10,7c3.9,1.5,8.2,2.2,12.8,2.2c4.5,0,8.6-0.8,12.4-2.3
			c3.8-1.5,7.1-4,9.9-7.4c2.8-3.4,5-7.9,6.6-13.3c1.6-5.5,2.4-12.1,2.4-19.9c0-8-0.9-14.6-2.6-20c-1.7-5.4-4-9.7-6.8-12.9
			c-2.8-3.2-6-5.5-9.5-6.9c-3.6-1.4-7.2-2.1-11-2.1c-4.7,0-9.1,0.8-13.2,2.4c-4,1.6-7.6,4-10.6,7.1c-3,3.1-5.3,7.1-7,12
			c-1.7,4.8-2.5,10.4-2.5,16.7V118.8z"/>
		<path style="fill:#858585;" d="M257.4,61.5h18v16.8c4.1-6,8.8-10.6,14.3-13.8c5.5-3.2,11.3-4.8,17.4-4.8c3.8,0,7,0.3,9.7,0.8
			l-2.3,17c-1.4-0.3-2.8-0.5-4.2-0.7c-1.4-0.2-2.9-0.3-4.6-0.3c-3.4,0-6.8,0.6-10.3,1.8c-3.5,1.2-6.8,3.2-9.9,6
			c-3.1,2.7-5.5,5.7-7.2,9.2c-1.8,3.5-2.6,7.6-2.6,12.2V170h-18.3V61.5z"/>
		<path style="fill:#858585;" d="M376.1,173.3c-8.3,0-15.6-1.3-22-4c-6.4-2.7-11.9-6.4-16.4-11.3c-4.5-4.9-7.9-10.9-10.3-18
			c-2.4-7.1-3.6-15.1-3.6-23.9c0-8.8,1.3-16.8,3.8-23.9c2.5-7.1,6.1-13.2,10.7-18.3c4.6-5,10.2-8.9,16.7-11.6
			c6.5-2.7,13.7-4.1,21.7-4.1c8.1,0,15.4,1.3,21.8,4c6.4,2.7,11.9,6.5,16.5,11.4c4.5,5,8,10.9,10.4,17.9c2.4,7,3.6,14.9,3.6,23.7
			c0,9-1.2,17-3.7,24.1c-2.4,7.1-5.9,13.2-10.5,18.3c-4.5,5-10.1,8.9-16.7,11.6C391.6,172,384.2,173.3,376.1,173.3z M376.3,158.2
			c5.8,0,10.8-1,15-3.1s7.6-5,10.3-8.8c2.7-3.8,4.7-8.3,5.9-13.5c1.3-5.2,1.9-11,1.9-17.3c0-6.2-0.6-11.8-1.9-17
			c-1.3-5.2-3.2-9.6-5.9-13.3c-2.7-3.7-6.1-6.6-10.3-8.7s-9.2-3.1-15-3.1c-5.8,0-10.8,1-14.9,3.1c-4.1,2.1-7.5,5-10.2,8.7
			c-2.7,3.7-4.7,8.1-5.9,13.3c-1.3,5.2-1.9,10.9-1.9,17.2c0,6.3,0.6,12,1.9,17.2c1.3,5.2,3.2,9.7,5.8,13.4c2.6,3.8,6,6.7,10.2,8.8
			C365.5,157.2,370.5,158.2,376.3,158.2z"/>
	</g>
	<g>
		<path style="fill:#858585;" d="M113.2,183.1c0-3.9,0-10.2,0-14.1v-22.9c0-3.9-2.8-5.5-6.1-3.5L87.2,154c-3.4,1.9-8.9,5.1-12.2,7.1
			l-19.9,11.5c-3.4,1.9-3.4,5.1,0,7.1L75,191.1c3.4,1.9,8.9,5.1,12.2,7.1l19.9,11.5c3.4,1.9,6.1,0.4,6.1-3.5V183.1z"/>
		<path style="fill:#858585;" d="M113.2,103.9c0-3.9,0-10.2,0-14.1V66.9c0-3.9-2.8-5.5-6.1-3.5L87.2,74.8c-3.4,1.9-8.9,5.1-12.2,7.1
			L55.1,93.3c-3.4,1.9-3.4,5.1,0,7.1L75,111.9c3.4,1.9,8.9,5.1,12.2,7.1l19.9,11.5c3.4,1.9,6.1,0.4,6.1-3.5V103.9z"/>
		<path style="fill:#858585;" d="M15.1,129.4c0,3.9,0,10.2,0,14.1v28.6c0,3.9,2.8,5.5,6.1,3.5l24.7-14.3c3.4-1.9,8.9-5.1,12.2-7.1
			L82.9,140c3.4-1.9,3.4-5.1,0-7.1l-24.7-14.3c-3.4-1.9-8.9-5.1-12.2-7.1L21.2,97.3c-3.4-1.9-6.1-0.4-6.1,3.5V129.4z"/>
	</g>
</g>
</svg>
