<?xml version="1.0" encoding="utf-8"?>
<!-- Generator: Adobe Illustrator 18.0.0, SVG Export Plug-In . SVG Version: 6.00 Build 0)  -->
<!DOCTYPE svg PUBLIC "-//W3C//DTD SVG 1.1//EN" "http://www.w3.org/Graphics/SVG/1.1/DTD/svg11.dtd">
<svg version="1.1" id="Layer_1" xmlns="http://www.w3.org/2000/svg" xmlns:xlink="http://www.w3.org/1999/xlink" x="0px" y="0px"
	 viewBox="0 0 612 792" enable-background="new 0 0 612 792" xml:space="preserve">
<g>
	<path fill="#FFFFFF" d="M530,343.7v-30.2h-10.8v-5H547v5h-10.8v30.2H530z M553.2,343.7v-35.3h9.6l9.9,25.9l9.7-25.9h9.6v35.2h-6.2
		v-29l-11.1,29h-4.2l-11.1-29v29h-6.2V343.7z"/>
	<g>
		<path fill="#FFFFFF" d="M153.9,322.6h21v18.1c5.2-7.2,11.3-12.6,18.2-16.4c6.9-3.7,15-5.6,24.3-5.6c9,0,16.8,1.6,23.5,4.9
			c6.8,3.3,12.3,7.8,16.9,13.6c4.4,5.8,7.8,12.8,10,20.9c2.2,8,3.3,17,3.3,26.8c0,10.5-1.3,19.8-4,28.2c-2.6,8.4-6.4,15.5-11.3,21.4
			c-4.9,5.8-10.8,10.4-17.7,13.5c-6.9,3.1-14.7,4.8-23.3,4.8c-7.2,0-14.2-1.4-21.2-4.3c-6.9-2.8-13.2-7.9-18.8-15.3v63h-21.3V322.6
			H153.9z M175,389.4c0,8.2,0.9,15.1,2.8,20.9c1.9,5.8,4.4,10.6,7.7,14.3c3.3,3.7,7.1,6.5,11.7,8.2c4.5,1.7,9.6,2.6,14.9,2.6
			c5.2,0,10-0.9,14.4-2.7c4.4-1.7,8.3-4.7,11.5-8.6c3.3-4,5.8-9.2,7.7-15.5c1.9-6.4,2.8-14.1,2.8-23.2c0-9.3-1-17-3-23.3
			c-2-6.3-4.7-11.3-7.9-15c-3.3-3.7-7-6.4-11.1-8c-4.2-1.6-8.4-2.4-12.8-2.4c-5.5,0-10.6,0.9-15.4,2.8c-4.7,1.9-8.9,4.7-12.3,8.3
			c-3.5,3.6-6.2,8.3-8.2,14c-2,5.6-2.9,12.1-2.9,19.5v8.4H175z"/>
		<path fill="#FFFFFF" d="M299.9,322.6h21v19.6c4.8-7,10.3-12.3,16.7-16.1c6.4-3.7,13.2-5.6,20.3-5.6c4.4,0,8.2,0.3,11.3,0.9
			l-2.7,19.8c-1.6-0.3-3.3-0.6-4.9-0.8c-1.6-0.2-3.4-0.3-5.4-0.3c-4,0-7.9,0.7-12,2.1c-4.1,1.4-7.9,3.7-11.5,7
			c-3.6,3.1-6.4,6.6-8.4,10.7c-2.1,4.1-3,8.9-3,14.2V449h-21.3V322.6z"/>
		<path fill="#FFFFFF" d="M438.2,452.9c-9.7,0-18.2-1.5-25.6-4.7c-7.5-3.1-13.9-7.5-19.1-13.2c-5.2-5.7-9.2-12.7-12-21
			s-4.2-17.6-4.2-27.8c0-10.3,1.5-19.6,4.4-27.8s7.1-15.4,12.5-21.3c5.4-5.8,11.9-10.4,19.5-13.5s16-4.8,25.3-4.8
			c9.4,0,17.9,1.5,25.4,4.7c7.5,3.1,13.9,7.6,19.2,13.3c5.2,5.8,9.3,12.7,12.1,20.9c2.8,8.2,4.2,17.4,4.2,27.6
			c0,10.5-1.4,19.8-4.3,28.1c-2.8,8.3-6.9,15.4-12.2,21.3c-5.2,5.8-11.8,10.4-19.5,13.5C456.2,451.3,447.6,452.9,438.2,452.9z
			 M438.4,435.3c6.8,0,12.6-1.2,17.5-3.6c4.9-2.4,8.9-5.8,12-10.3c3.1-4.4,5.5-9.7,6.9-15.7c1.5-6.1,2.2-12.8,2.2-20.2
			c0-7.2-0.7-13.7-2.2-19.8s-3.7-11.2-6.9-15.5c-3.1-4.3-7.1-7.7-12-10.1c-4.9-2.4-10.7-3.6-17.5-3.6s-12.6,1.2-17.4,3.6
			c-4.8,2.4-8.7,5.8-11.9,10.1c-3.1,4.3-5.5,9.4-6.9,15.5c-1.5,6.1-2.2,12.7-2.2,20s0.7,14,2.2,20c1.5,6.1,3.7,11.3,6.8,15.6
			c3,4.4,7,7.8,11.9,10.3C425.8,434.1,431.7,435.3,438.4,435.3z"/>
	</g>
	<g>
		<path fill="#FFFFFF" d="M131.9,464.3c0-4.5,0-11.9,0-16.4v-26.7c0-4.5-3.3-6.4-7.1-4.1l-23.2,13.3c-4,2.2-10.4,5.9-14.2,8.3
			L64.2,452c-4,2.2-4,5.9,0,8.3l23.2,13.3c4,2.2,10.4,5.9,14.2,8.3l23.2,13.4c4,2.2,7.1,0.5,7.1-4.1V464.3z"/>
		<path fill="#FFFFFF" d="M131.9,372c0-4.5,0-11.9,0-16.4v-26.7c0-4.5-3.3-6.4-7.1-4.1l-23.2,13.3c-4,2.2-10.4,5.9-14.2,8.3
			l-23.2,13.3c-4,2.2-4,5.9,0,8.3l23.2,13.4c4,2.2,10.4,5.9,14.2,8.3l23.2,13.4c4,2.2,7.1,0.5,7.1-4.1V372z"/>
		<path fill="#FFFFFF" d="M17.6,401.7c0,4.5,0,11.9,0,16.4v33.3c0,4.5,3.3,6.4,7.1,4.1l28.8-16.7c4-2.2,10.4-5.9,14.2-8.3l28.9-16.5
			c4-2.2,4-5.9,0-8.3l-28.8-16.7c-4-2.2-10.4-5.9-14.2-8.3l-28.9-16.5c-4-2.2-7.1-0.5-7.1,4.1V401.7z"/>
	</g>
</g>
</svg>
