<?xml version="1.0" encoding="utf-8"?>
<!-- Generator: Adobe Illustrator 18.0.0, SVG Export Plug-In . SVG Version: 6.00 Build 0)  -->
<!DOCTYPE svg PUBLIC "-//W3C//DTD SVG 1.1//EN" "http://www.w3.org/Graphics/SVG/1.1/DTD/svg11.dtd">
<svg version="1.1" id="Layer_1" xmlns="http://www.w3.org/2000/svg" xmlns:xlink="http://www.w3.org/1999/xlink" x="0px" y="0px"
	 viewBox="0 0 88.3 124.7" enable-background="new 0 0 88.3 124.7" xml:space="preserve">
<circle fill="#8C8C8C" stroke="#FFFFFF" stroke-width="2" stroke-miterlimit="10" cx="44.2" cy="47.2" r="40.6"/>
<path fill="#FFFFFF" d="M60.5,48.7c-1-1.2-2.2-2-3.7-2.4c0.5-0.7,0.7-1.5,0.7-2.4c0-1.2-0.4-2.3-1.3-3.2c-0.9-0.9-1.9-1.3-3.2-1.3
	c-1.1,0-2.1,0.4-2.9,1.1c-0.7-1.7-1.8-3-3.3-4c-1.5-1-3.2-1.5-5-1.5c-2.5,0-4.6,0.9-6.3,2.6c-1.7,1.7-2.6,3.9-2.6,6.3
	c0,0.2,0,0.4,0,0.8c-1.4,0.6-2.5,1.6-3.3,2.9c-0.8,1.3-1.2,2.7-1.2,4.2c0,2.2,0.8,4,2.3,5.5c1.5,1.5,3.4,2.3,5.5,2.3h19
	c1.9,0,3.4-0.7,4.7-2c1.3-1.3,2-2.9,2-4.7C61.9,51.3,61.5,49.9,60.5,48.7z"/>
<g>
	<path fill="#8C8C8C" d="M17.4,115.3L17.4,115.3c0,0.8-0.3,1.5-0.8,2s-1.3,0.8-2.3,0.8c-1,0-1.8-0.3-2.4-1s-0.9-1.6-0.9-2.6v-1.5
		c0-1.1,0.3-1.9,0.9-2.6s1.4-1,2.4-1s1.7,0.3,2.3,0.8s0.8,1.2,0.8,2l0,0h-1.1c0-0.6-0.2-1.1-0.5-1.4s-0.8-0.5-1.5-0.5
		c-0.6,0-1.2,0.3-1.5,0.8c-0.4,0.5-0.6,1.2-0.6,1.9v1.5c0,0.8,0.2,1.4,0.6,1.9c0.4,0.5,0.9,0.8,1.5,0.8c0.6,0,1.1-0.2,1.5-0.5
		s0.5-0.8,0.5-1.4H17.4z"/>
	<path fill="#8C8C8C" d="M20,118.1h-1.2v-9.1H20V118.1z"/>
	<path fill="#8C8C8C" d="M21.5,114.8c0-0.9,0.3-1.7,0.8-2.3s1.2-0.9,2.1-0.9c0.9,0,1.6,0.3,2.1,0.9s0.8,1.4,0.8,2.3v0.1
		c0,0.9-0.3,1.7-0.8,2.3s-1.2,0.9-2.1,0.9s-1.6-0.3-2.1-0.9s-0.8-1.4-0.8-2.3V114.8z M22.6,115c0,0.7,0.1,1.2,0.4,1.7
		c0.3,0.4,0.7,0.7,1.3,0.7c0.6,0,1-0.2,1.3-0.7c0.3-0.4,0.4-1,0.4-1.7v-0.1c0-0.7-0.1-1.2-0.4-1.7s-0.7-0.7-1.3-0.7
		c-0.6,0-1,0.2-1.3,0.7s-0.4,1-0.4,1.7V115z"/>
	<path fill="#8C8C8C" d="M32.6,117.1c-0.2,0.3-0.5,0.6-0.8,0.8c-0.3,0.2-0.7,0.3-1.1,0.3c-0.7,0-1.2-0.2-1.6-0.7s-0.6-1.1-0.6-2.1
		v-3.7h1.2v3.8c0,0.7,0.1,1.1,0.3,1.4s0.5,0.4,0.9,0.4c0.4,0,0.7-0.1,1-0.2c0.3-0.2,0.5-0.4,0.6-0.7v-4.6h1.2v6.3h-1L32.6,117.1z"/>
	<path fill="#8C8C8C" d="M35.1,115c0-1,0.2-1.8,0.7-2.5s1-0.9,1.8-0.9c0.4,0,0.7,0.1,1,0.2s0.5,0.3,0.7,0.6v-3.5h1.2v9.1h-0.9
		l-0.1-0.8c-0.2,0.3-0.5,0.5-0.8,0.7s-0.7,0.2-1,0.2c-0.8,0-1.4-0.3-1.8-0.8s-0.7-1.3-0.7-2.2V115z M36.3,115.1
		c0,0.6,0.1,1.2,0.4,1.5s0.7,0.6,1.2,0.6c0.3,0,0.6-0.1,0.9-0.2s0.4-0.4,0.6-0.7v-3c-0.1-0.3-0.3-0.5-0.6-0.6s-0.5-0.2-0.9-0.2
		c-0.6,0-1,0.2-1.2,0.7s-0.4,1.1-0.4,1.8V115.1z"/>
	<path fill="#8C8C8C" d="M45.4,118.1v-8.5h2.8c0.9,0,1.6,0.2,2.1,0.6s0.8,1,0.8,1.7c0,0.4-0.1,0.7-0.4,1s-0.6,0.5-1,0.7
		c0.5,0.1,0.9,0.4,1.2,0.8s0.4,0.9,0.4,1.4c0,0.8-0.3,1.4-0.8,1.8s-1.2,0.6-2.1,0.6H45.4z M46.5,113.2h1.9c0.4,0,0.8-0.1,1-0.4
		s0.4-0.6,0.4-1c0-0.5-0.1-0.8-0.4-1s-0.7-0.3-1.3-0.3h-1.6V113.2z M46.5,114.1v3.1h2c0.5,0,0.9-0.1,1.2-0.4s0.4-0.6,0.4-1.1
		c0-0.5-0.1-0.9-0.4-1.2s-0.6-0.4-1.1-0.4H46.5z"/>
	<path fill="#8C8C8C" d="M56.7,118.1c0-0.2-0.1-0.4-0.1-0.5s0-0.3,0-0.4c-0.2,0.3-0.5,0.6-0.8,0.8s-0.7,0.3-1.1,0.3
		c-0.7,0-1.2-0.2-1.5-0.5s-0.5-0.8-0.5-1.4c0-0.6,0.2-1.1,0.7-1.4s1.2-0.5,2-0.5h1.3v-0.6c0-0.4-0.1-0.7-0.3-0.9s-0.5-0.3-1-0.3
		c-0.4,0-0.7,0.1-0.9,0.3s-0.3,0.4-0.3,0.7H53l0,0c0-0.5,0.2-0.9,0.7-1.3s1.1-0.6,1.8-0.6c0.7,0,1.3,0.2,1.7,0.5s0.7,0.9,0.7,1.6
		v3.1c0,0.2,0,0.4,0,0.7s0.1,0.4,0.1,0.6H56.7z M54.8,117.2c0.4,0,0.8-0.1,1.1-0.3c0.3-0.2,0.6-0.5,0.7-0.7v-1h-1.3
		c-0.5,0-0.8,0.1-1.1,0.4c-0.3,0.2-0.4,0.5-0.4,0.8c0,0.3,0.1,0.5,0.3,0.7C54.2,117.1,54.5,117.2,54.8,117.2z"/>
	<path fill="#8C8C8C" d="M63.1,116.4c0-0.3-0.1-0.5-0.3-0.6s-0.6-0.3-1.1-0.4c-0.8-0.2-1.3-0.4-1.7-0.7c-0.4-0.3-0.6-0.7-0.6-1.2
		c0-0.5,0.2-1,0.7-1.3c0.4-0.4,1-0.5,1.7-0.5c0.7,0,1.3,0.2,1.8,0.6s0.6,0.8,0.6,1.4l0,0h-1.1c0-0.3-0.1-0.5-0.3-0.7
		s-0.5-0.3-0.9-0.3c-0.4,0-0.7,0.1-0.9,0.3s-0.3,0.4-0.3,0.7c0,0.2,0.1,0.4,0.3,0.6s0.5,0.3,1.1,0.4c0.8,0.2,1.4,0.4,1.8,0.7
		s0.6,0.7,0.6,1.2c0,0.6-0.2,1-0.7,1.4s-1,0.5-1.8,0.5c-0.8,0-1.4-0.2-1.9-0.6s-0.7-0.9-0.7-1.4l0,0h1.1c0,0.4,0.2,0.7,0.5,0.9
		s0.6,0.3,1,0.3c0.4,0,0.7-0.1,1-0.2S63.1,116.7,63.1,116.4z"/>
	<path fill="#8C8C8C" d="M68.3,118.2c-0.9,0-1.6-0.3-2.1-0.9s-0.8-1.4-0.8-2.3v-0.3c0-0.9,0.3-1.7,0.8-2.3s1.2-0.9,1.9-0.9
		c0.9,0,1.5,0.3,1.9,0.8s0.7,1.2,0.7,2.1v0.7h-4.1l0,0c0,0.6,0.2,1.1,0.5,1.5c0.3,0.4,0.7,0.6,1.2,0.6c0.4,0,0.7-0.1,1-0.2
		s0.5-0.3,0.8-0.5l0.5,0.8c-0.2,0.2-0.5,0.4-0.9,0.6S68.9,118.2,68.3,118.2z M68.2,112.5c-0.4,0-0.7,0.2-1,0.5s-0.4,0.7-0.5,1.2l0,0
		h2.9v-0.2c0-0.5-0.1-0.8-0.4-1.1S68.6,112.5,68.2,112.5z"/>
	<path fill="#8C8C8C" d="M71.8,115c0-1,0.2-1.8,0.7-2.5s1-0.9,1.8-0.9c0.4,0,0.7,0.1,1,0.2s0.5,0.3,0.7,0.6v-3.5h1.2v9.1h-0.9
		l-0.1-0.8c-0.2,0.3-0.5,0.5-0.8,0.7s-0.7,0.2-1,0.2c-0.8,0-1.4-0.3-1.8-0.8s-0.7-1.3-0.7-2.2V115z M73,115.1c0,0.6,0.1,1.2,0.4,1.5
		s0.7,0.6,1.2,0.6c0.3,0,0.6-0.1,0.9-0.2s0.4-0.4,0.6-0.7v-3c-0.1-0.3-0.3-0.5-0.6-0.6s-0.5-0.2-0.9-0.2c-0.6,0-1,0.2-1.2,0.7
		S73,114.3,73,115V115.1z"/>
</g>
</svg>
