<?xml version="1.0" encoding="utf-8"?>
<!-- Generator: Adobe Illustrator 18.0.0, SVG Export Plug-In . SVG Version: 6.00 Build 0)  -->
<!DOCTYPE svg PUBLIC "-//W3C//DTD SVG 1.1//EN" "http://www.w3.org/Graphics/SVG/1.1/DTD/svg11.dtd">
<svg version="1.1" id="Layer_1" xmlns="http://www.w3.org/2000/svg" xmlns:xlink="http://www.w3.org/1999/xlink" x="0px" y="0px"
	 viewBox="0 0 88.3 124.7" enable-background="new 0 0 88.3 124.7" xml:space="preserve">
<circle fill="#FFFFFF" stroke="#8C8C8C" stroke-width="2" stroke-miterlimit="10" cx="44.5" cy="47.2" r="40.6"/>
<path fill="#8C8C8C" d="M57.7,34c0,0-4-0.1-7.9,1.9c-1.2,0.6-2.5,1.4-3.6,2.5c-1.8,1.8-4.6,5.1-6.7,7.7h-4.8l-2.2,3.3l3.7,1
	c0,0.1,0,0.3,0.1,0.6l-0.6,1.3c0,0-0.2,0.4,1.4,2.2c1.8,1.8,2.3,1.5,2.3,1.5l1.4-0.6c0.2,0.1,0.4,0.1,0.5,0.1l1,3.8l3.3-2.2v-5
	c2.7-2.2,5.9-4.9,7.7-6.6c1.1-1.1,2-2.4,2.6-3.6C57.9,38,57.7,34,57.7,34z M50,43.9c-1.2,0-2.2-1-2.2-2.2c0-1.2,1-2.2,2.2-2.2
	c1.2,0,2.2,1,2.2,2.2C52.2,42.9,51.2,43.9,50,43.9z M38.5,57.2c0.2,0.1,0.3,0.2,0.6,0.3c-0.2,0.2-0.4,0.6-0.7,0.8
	c-2.5,2.5-7.1,2.2-7.1,2.2s-0.3-4.5,2.2-7.1c0.2-0.2,0.6-0.4,0.8-0.7c0.1,0.2,0.2,0.3,0.3,0.6c-1.7,2.1-1.4,5.3-1.4,5.3
	S36.4,58.8,38.5,57.2z"/>
<g>
	<path fill="#8C8C8C" d="M12.6,114.3H8.8v3.8H7.6v-8.5h5.6v0.9H8.8v2.9h3.9V114.3z"/>
	<path fill="#8C8C8C" d="M18.1,118.1c0-0.2-0.1-0.4-0.1-0.5s0-0.3,0-0.4c-0.2,0.3-0.5,0.6-0.8,0.8s-0.7,0.3-1.1,0.3
		c-0.7,0-1.2-0.2-1.5-0.5s-0.5-0.8-0.5-1.4c0-0.6,0.2-1.1,0.7-1.4s1.2-0.5,2-0.5h1.3v-0.6c0-0.4-0.1-0.7-0.3-0.9s-0.5-0.3-1-0.3
		c-0.4,0-0.7,0.1-0.9,0.3s-0.3,0.4-0.3,0.7h-1.1l0,0c0-0.5,0.2-0.9,0.7-1.3s1.1-0.6,1.8-0.6c0.7,0,1.3,0.2,1.7,0.5s0.7,0.9,0.7,1.6
		v3.1c0,0.2,0,0.4,0,0.7s0.1,0.4,0.1,0.6H18.1z M16.2,117.2c0.4,0,0.8-0.1,1.1-0.3c0.3-0.2,0.6-0.5,0.7-0.7v-1h-1.3
		c-0.5,0-0.8,0.1-1.1,0.4c-0.3,0.2-0.4,0.5-0.4,0.8c0,0.3,0.1,0.5,0.3,0.7C15.6,117.1,15.8,117.2,16.2,117.2z"/>
	<path fill="#8C8C8C" d="M24.5,116.4c0-0.3-0.1-0.5-0.3-0.6s-0.6-0.3-1.1-0.4c-0.8-0.2-1.3-0.4-1.7-0.7c-0.4-0.3-0.6-0.7-0.6-1.2
		c0-0.5,0.2-1,0.7-1.3c0.4-0.4,1-0.5,1.7-0.5c0.7,0,1.3,0.2,1.8,0.6s0.6,0.8,0.6,1.4l0,0h-1.1c0-0.3-0.1-0.5-0.3-0.7
		s-0.5-0.3-0.9-0.3c-0.4,0-0.7,0.1-0.9,0.3s-0.3,0.4-0.3,0.7c0,0.2,0.1,0.4,0.3,0.6s0.5,0.3,1.1,0.4c0.8,0.2,1.4,0.4,1.8,0.7
		s0.6,0.7,0.6,1.2c0,0.6-0.2,1-0.7,1.4s-1,0.5-1.8,0.5c-0.8,0-1.4-0.2-1.9-0.6s-0.7-0.9-0.7-1.4l0,0h1.1c0,0.4,0.2,0.7,0.5,0.9
		s0.6,0.3,1,0.3c0.4,0,0.7-0.1,1-0.2S24.5,116.7,24.5,116.4z"/>
	<path fill="#8C8C8C" d="M28.6,110.2v1.5h1.2v0.9h-1.2v3.8c0,0.3,0.1,0.5,0.2,0.6s0.3,0.2,0.5,0.2c0.1,0,0.1,0,0.2,0s0.2,0,0.2-0.1
		l0.2,0.8c-0.1,0.1-0.2,0.1-0.4,0.2s-0.3,0.1-0.5,0.1c-0.5,0-0.8-0.1-1.1-0.4s-0.4-0.7-0.4-1.3v-3.8h-1v-0.9h1v-1.5H28.6z"/>
	<path fill="#8C8C8C" d="M38.1,118.1c0-0.2-0.1-0.4-0.1-0.5s0-0.3,0-0.4c-0.2,0.3-0.5,0.6-0.8,0.8s-0.7,0.3-1.1,0.3
		c-0.7,0-1.2-0.2-1.5-0.5s-0.5-0.8-0.5-1.4c0-0.6,0.2-1.1,0.7-1.4s1.2-0.5,2-0.5h1.3v-0.6c0-0.4-0.1-0.7-0.3-0.9s-0.5-0.3-1-0.3
		c-0.4,0-0.7,0.1-0.9,0.3s-0.3,0.4-0.3,0.7h-1.1l0,0c0-0.5,0.2-0.9,0.7-1.3s1.1-0.6,1.8-0.6c0.7,0,1.3,0.2,1.7,0.5s0.7,0.9,0.7,1.6
		v3.1c0,0.2,0,0.4,0,0.7s0.1,0.4,0.1,0.6H38.1z M36.2,117.2c0.4,0,0.8-0.1,1.1-0.3c0.3-0.2,0.6-0.5,0.7-0.7v-1h-1.3
		c-0.5,0-0.8,0.1-1.1,0.4c-0.3,0.2-0.4,0.5-0.4,0.8c0,0.3,0.1,0.5,0.3,0.7C35.6,117.1,35.8,117.2,36.2,117.2z"/>
	<path fill="#8C8C8C" d="M41.8,111.7l0.1,0.9c0.2-0.3,0.5-0.6,0.8-0.8s0.7-0.3,1.1-0.3c0.7,0,1.2,0.2,1.6,0.6s0.6,1,0.6,1.9v4h-1.2
		v-4c0-0.6-0.1-1-0.3-1.2s-0.6-0.4-1-0.4c-0.3,0-0.6,0.1-0.9,0.2s-0.5,0.4-0.6,0.7v4.6h-1.2v-6.3H41.8z"/>
	<path fill="#8C8C8C" d="M47.3,115c0-1,0.2-1.8,0.7-2.5s1-0.9,1.8-0.9c0.4,0,0.7,0.1,1,0.2s0.5,0.3,0.7,0.6v-3.5h1.2v9.1h-0.9
		l-0.1-0.8c-0.2,0.3-0.5,0.5-0.8,0.7s-0.7,0.2-1,0.2c-0.8,0-1.4-0.3-1.8-0.8s-0.7-1.3-0.7-2.2V115z M48.5,115.1
		c0,0.6,0.1,1.2,0.4,1.5s0.7,0.6,1.2,0.6c0.3,0,0.6-0.1,0.9-0.2s0.4-0.4,0.6-0.7v-3c-0.1-0.3-0.3-0.5-0.6-0.6s-0.5-0.2-0.9-0.2
		c-0.6,0-1,0.2-1.2,0.7s-0.4,1.1-0.4,1.8V115.1z"/>
	<path fill="#8C8C8C" d="M62.7,114.1h-3.9v3h4.5v0.9h-5.7v-8.5h5.6v0.9h-4.4v2.8h3.9V114.1z"/>
	<path fill="#8C8C8C" d="M68.3,118.1c0-0.2-0.1-0.4-0.1-0.5s0-0.3,0-0.4c-0.2,0.3-0.5,0.6-0.8,0.8s-0.7,0.3-1.1,0.3
		c-0.7,0-1.2-0.2-1.5-0.5s-0.5-0.8-0.5-1.4c0-0.6,0.2-1.1,0.7-1.4s1.2-0.5,2-0.5h1.3v-0.6c0-0.4-0.1-0.7-0.3-0.9s-0.5-0.3-1-0.3
		c-0.4,0-0.7,0.1-0.9,0.3s-0.3,0.4-0.3,0.7h-1.1l0,0c0-0.5,0.2-0.9,0.7-1.3s1.1-0.6,1.8-0.6c0.7,0,1.3,0.2,1.7,0.5s0.7,0.9,0.7,1.6
		v3.1c0,0.2,0,0.4,0,0.7s0.1,0.4,0.1,0.6H68.3z M66.4,117.2c0.4,0,0.8-0.1,1.1-0.3c0.3-0.2,0.6-0.5,0.7-0.7v-1h-1.3
		c-0.5,0-0.8,0.1-1.1,0.4c-0.3,0.2-0.4,0.5-0.4,0.8c0,0.3,0.1,0.5,0.3,0.7C65.8,117.1,66,117.2,66.4,117.2z"/>
	<path fill="#8C8C8C" d="M74.7,116.4c0-0.3-0.1-0.5-0.3-0.6s-0.6-0.3-1.1-0.4c-0.8-0.2-1.3-0.4-1.7-0.7c-0.4-0.3-0.6-0.7-0.6-1.2
		c0-0.5,0.2-1,0.7-1.3c0.4-0.4,1-0.5,1.7-0.5c0.7,0,1.3,0.2,1.8,0.6s0.6,0.8,0.6,1.4l0,0h-1.1c0-0.3-0.1-0.5-0.3-0.7
		s-0.5-0.3-0.9-0.3c-0.4,0-0.7,0.1-0.9,0.3s-0.3,0.4-0.3,0.7c0,0.2,0.1,0.4,0.3,0.6s0.5,0.3,1.1,0.4c0.8,0.2,1.4,0.4,1.8,0.7
		s0.6,0.7,0.6,1.2c0,0.6-0.2,1-0.7,1.4s-1,0.5-1.8,0.5c-0.8,0-1.4-0.2-1.9-0.6s-0.7-0.9-0.7-1.4l0,0h1.1c0,0.4,0.2,0.7,0.5,0.9
		s0.6,0.3,1,0.3c0.4,0,0.7-0.1,1-0.2S74.7,116.7,74.7,116.4z"/>
	<path fill="#8C8C8C" d="M79.2,115.7l0.2,0.8h0l1.6-4.8h1.3l-2.7,7.3c-0.2,0.4-0.4,0.8-0.7,1.1s-0.7,0.5-1.2,0.5c-0.1,0-0.2,0-0.4,0
		s-0.3,0-0.3-0.1l0.1-0.9c0,0,0,0,0.2,0s0.3,0,0.3,0c0.2,0,0.4-0.1,0.6-0.3s0.3-0.5,0.4-0.7l0.3-0.7l-2.4-6.2h1.3L79.2,115.7z"/>
</g>
</svg>
