<?xml version="1.0" encoding="utf-8"?>
<!-- Generator: Adobe Illustrator 18.0.0, SVG Export Plug-In . SVG Version: 6.00 Build 0)  -->
<!DOCTYPE svg PUBLIC "-//W3C//DTD SVG 1.1//EN" "http://www.w3.org/Graphics/SVG/1.1/DTD/svg11.dtd">
<svg version="1.1" id="Layer_1" xmlns="http://www.w3.org/2000/svg" xmlns:xlink="http://www.w3.org/1999/xlink" x="0px" y="0px"
	 viewBox="0 0 88.3 124.7" enable-background="new 0 0 88.3 124.7" xml:space="preserve">
<circle fill="#8C8C8C" stroke="#FFFFFF" stroke-width="2" stroke-miterlimit="10" cx="44.6" cy="48" r="40.6"/>
<path fill="#FFFFFF" d="M57.8,40l-2.1-2.1c-0.3-0.3-0.7-0.5-1.1-0.5c-0.4,0-0.8,0.2-1.1,0.5L40.8,50.5l-5.1-5.1
	c-0.3-0.3-0.7-0.5-1.1-0.5s-0.8,0.2-1.1,0.5l-2.1,2.1c-0.3,0.3-0.5,0.7-0.5,1.1c0,0.4,0.2,0.8,0.5,1.1l8.4,8.4
	c0.3,0.3,0.7,0.5,1.1,0.5s0.8-0.2,1.1-0.5l15.9-15.9c0.3-0.3,0.5-0.7,0.5-1.1S58.1,40.3,57.8,40z"/>
<g>
	<path fill="#8C8C8C" d="M20.9,117.7c-0.2,0.3-0.6,0.6-1.1,0.9s-1.2,0.4-1.9,0.4c-1,0-1.9-0.3-2.5-1s-1-1.5-1-2.5v-1.8
		c0-1,0.3-1.9,0.9-2.5s1.4-1,2.4-1c1,0,1.7,0.2,2.3,0.7s0.8,1.1,0.9,1.9l0,0h-1.1c0-0.5-0.2-0.9-0.6-1.2s-0.8-0.5-1.5-0.5
		c-0.7,0-1.2,0.2-1.6,0.7c-0.4,0.5-0.6,1.1-0.6,1.9v1.8c0,0.8,0.2,1.4,0.7,1.9c0.4,0.5,1,0.7,1.7,0.7c0.5,0,0.9-0.1,1.2-0.2
		c0.3-0.1,0.5-0.3,0.7-0.4v-1.9h-1.9v-0.9h3V117.7z"/>
	<path fill="#8C8C8C" d="M22.5,115.6c0-0.9,0.3-1.7,0.8-2.3s1.2-0.9,2.1-0.9c0.9,0,1.6,0.3,2.1,0.9s0.8,1.4,0.8,2.3v0.1
		c0,0.9-0.3,1.7-0.8,2.3s-1.2,0.9-2.1,0.9s-1.6-0.3-2.1-0.9s-0.8-1.4-0.8-2.3V115.6z M23.6,115.7c0,0.7,0.1,1.2,0.4,1.7
		c0.3,0.4,0.7,0.7,1.3,0.7c0.6,0,1-0.2,1.3-0.7c0.3-0.4,0.4-1,0.4-1.7v-0.1c0-0.7-0.1-1.2-0.4-1.7c-0.3-0.4-0.7-0.7-1.3-0.7
		c-0.6,0-1,0.2-1.3,0.7c-0.3,0.4-0.4,1-0.4,1.7V115.7z"/>
	<path fill="#8C8C8C" d="M33.4,118.8c0-0.2-0.1-0.4-0.1-0.5s0-0.3,0-0.4c-0.2,0.3-0.5,0.6-0.8,0.8s-0.7,0.3-1.1,0.3
		c-0.7,0-1.2-0.2-1.5-0.5s-0.5-0.8-0.5-1.4c0-0.6,0.2-1.1,0.7-1.4s1.2-0.5,2-0.5h1.3v-0.6c0-0.4-0.1-0.7-0.3-0.9s-0.5-0.3-1-0.3
		c-0.4,0-0.7,0.1-0.9,0.3s-0.3,0.4-0.3,0.7h-1.1l0,0c0-0.5,0.2-0.9,0.7-1.3s1.1-0.6,1.8-0.6c0.7,0,1.3,0.2,1.7,0.5s0.7,0.9,0.7,1.6
		v3.1c0,0.2,0,0.4,0,0.7s0.1,0.4,0.1,0.6H33.4z M31.5,118c0.4,0,0.8-0.1,1.1-0.3c0.3-0.2,0.6-0.5,0.7-0.7v-1H32
		c-0.5,0-0.8,0.1-1.1,0.4c-0.3,0.2-0.4,0.5-0.4,0.8c0,0.3,0.1,0.5,0.3,0.7S31.2,118,31.5,118z"/>
	<path fill="#8C8C8C" d="M37.4,118.8h-1.2v-9.1h1.2V118.8z"/>
	<path fill="#8C8C8C" d="M42.4,118.8v-8.5H45c1.1,0,2,0.3,2.7,1s1,1.6,1,2.7v1.2c0,1.1-0.3,2-1,2.7s-1.6,1-2.7,1H42.4z M43.5,111.2
		v6.7H45c0.8,0,1.4-0.3,1.9-0.8s0.7-1.2,0.7-2V114c0-0.8-0.2-1.5-0.7-2c-0.5-0.5-1.1-0.8-1.9-0.8H43.5z"/>
	<path fill="#8C8C8C" d="M53.1,113.5l-0.6,0c-0.3,0-0.6,0.1-0.8,0.2s-0.4,0.3-0.5,0.6v4.5h-1.2v-6.3h1l0.1,0.9
		c0.2-0.3,0.4-0.6,0.7-0.8s0.6-0.3,0.9-0.3c0.1,0,0.2,0,0.2,0s0.1,0,0.2,0L53.1,113.5z"/>
	<path fill="#8C8C8C" d="M55.4,110.9h-1.2v-1.2h1.2V110.9z M55.4,118.8h-1.2v-6.3h1.2V118.8z"/>
	<path fill="#8C8C8C" d="M59.3,116.9l0.1,0.4h0l0.1-0.4l1.5-4.5h1.2l-2.3,6.3H59l-2.4-6.3h1.2L59.3,116.9z"/>
	<path fill="#8C8C8C" d="M65.8,118.9c-0.9,0-1.6-0.3-2.1-0.9s-0.8-1.4-0.8-2.3v-0.3c0-0.9,0.3-1.7,0.8-2.3s1.2-0.9,1.9-0.9
		c0.9,0,1.5,0.3,1.9,0.8s0.7,1.2,0.7,2.1v0.7h-4.1l0,0c0,0.6,0.2,1.1,0.5,1.5s0.7,0.6,1.2,0.6c0.4,0,0.7-0.1,1-0.2s0.5-0.3,0.8-0.5
		l0.5,0.8c-0.2,0.2-0.5,0.4-0.9,0.6S66.3,118.9,65.8,118.9z M65.6,113.3c-0.4,0-0.7,0.2-1,0.5c-0.3,0.3-0.4,0.7-0.5,1.2l0,0H67v-0.2
		c0-0.5-0.1-0.8-0.4-1.1S66.1,113.3,65.6,113.3z"/>
	<path fill="#8C8C8C" d="M70.5,112.5l0.1,0.9c0.2-0.3,0.5-0.6,0.8-0.8s0.7-0.3,1.1-0.3c0.7,0,1.2,0.2,1.6,0.6s0.6,1,0.6,1.9v4h-1.2
		v-4c0-0.6-0.1-1-0.3-1.2s-0.6-0.4-1-0.4c-0.3,0-0.6,0.1-0.9,0.2s-0.5,0.4-0.6,0.7v4.6h-1.2v-6.3H70.5z"/>
</g>
</svg>
