<?xml version="1.0" encoding="utf-8"?>
<!-- Generator: Adobe Illustrator 18.0.0, SVG Export Plug-In . SVG Version: 6.00 Build 0)  -->
<!DOCTYPE svg PUBLIC "-//W3C//DTD SVG 1.1//EN" "http://www.w3.org/Graphics/SVG/1.1/DTD/svg11.dtd">
<svg version="1.1" id="Layer_1" xmlns="http://www.w3.org/2000/svg" xmlns:xlink="http://www.w3.org/1999/xlink" x="0px" y="0px"
	 viewBox="0 0 88.3 124.7" enable-background="new 0 0 88.3 124.7" xml:space="preserve">
<circle fill="#FFFFFF" stroke="#8C8C8C" stroke-width="2" stroke-miterlimit="10" cx="44.2" cy="47.2" r="40.6"/>
<path fill="#8C8C8C" d="M33.2,43.2c2.2,0,4,1.8,4,4c0,1.3-0.6,2.4-1.5,3.1c1.3,3.8,4.8,6.7,9,6.9c0,1.5,0.6,2.9,1.7,3.9l-1.2,0
	c-6.4,0-11.9-4.4-13.5-10.3c-1.5-0.6-2.5-2-2.5-3.7C29.2,45,31,43.2,33.2,43.2z M49.7,33.3c2.2,0,4,1.8,4,4c0,2.2-1.8,4-4,4
	c-2.2,0-4-1.8-4-4c-0.2,0-0.3,0-0.5,0c-3.9,0-7.2,2.2-8.9,5.4c-0.9-0.6-1.9-0.9-3.1-0.9l-0.9,0.1c2.1-5,7.1-8.6,12.9-8.6
	c1,0,2,0.1,2.9,0.3C48.6,33.4,49.1,33.3,49.7,33.3z M50.1,53.2c0.9,0,1.7,0.3,2.4,0.8c1.6-1.8,2.6-4.2,2.6-6.8
	c0-2.2-0.7-4.2-1.9-5.8c1.1-1,1.8-2.4,1.9-3.9c2.5,2.5,4,6,4,9.8c0,4.3-2,8.2-5.1,10.8c-0.4,1.8-2,3.2-3.9,3.2c-2.2,0-4-1.8-4-4
	C46.2,55,47.9,53.2,50.1,53.2z"/>
<g>
	<path fill="#8C8C8C" d="M18.7,118.1h-1.2v-8.5h1.2V118.1z"/>
	<path fill="#8C8C8C" d="M21.6,111.7l0.1,0.9c0.2-0.3,0.5-0.6,0.8-0.8s0.7-0.3,1.1-0.3c0.7,0,1.2,0.2,1.6,0.6s0.6,1,0.6,1.9v4h-1.2
		v-4c0-0.6-0.1-1-0.3-1.2s-0.6-0.4-1-0.4c-0.3,0-0.6,0.1-0.9,0.2s-0.5,0.4-0.6,0.7v4.6h-1.2v-6.3H21.6z"/>
	<path fill="#8C8C8C" d="M29,110.2v1.5h1.2v0.9H29v3.8c0,0.3,0.1,0.5,0.2,0.6s0.3,0.2,0.5,0.2c0.1,0,0.1,0,0.2,0s0.2,0,0.2-0.1
		l0.2,0.8c-0.1,0.1-0.2,0.1-0.4,0.2s-0.3,0.1-0.5,0.1c-0.5,0-0.8-0.1-1.1-0.4s-0.4-0.7-0.4-1.3v-3.8h-1v-0.9h1v-1.5H29z"/>
	<path fill="#8C8C8C" d="M34.2,118.2c-0.9,0-1.6-0.3-2.1-0.9c-0.5-0.6-0.8-1.4-0.8-2.3v-0.3c0-0.9,0.3-1.7,0.8-2.3
		c0.5-0.6,1.2-0.9,1.9-0.9c0.9,0,1.5,0.3,1.9,0.8s0.7,1.2,0.7,2.1v0.7h-4.1l0,0c0,0.6,0.2,1.1,0.5,1.5s0.7,0.6,1.2,0.6
		c0.4,0,0.7-0.1,1-0.2s0.5-0.3,0.8-0.5l0.5,0.8c-0.2,0.2-0.5,0.4-0.9,0.6S34.7,118.2,34.2,118.2z M34,112.5c-0.4,0-0.7,0.2-1,0.5
		c-0.3,0.3-0.4,0.7-0.5,1.2l0,0h2.9v-0.2c0-0.5-0.1-0.8-0.4-1.1S34.5,112.5,34,112.5z"/>
	<path fill="#8C8C8C" d="M37.7,115c0-1,0.2-1.8,0.7-2.5s1.1-0.9,1.8-0.9c0.4,0,0.8,0.1,1.1,0.2s0.6,0.4,0.8,0.7l0.1-0.8h0.9v6.4
		c0,0.8-0.2,1.4-0.7,1.9s-1.2,0.7-2,0.7c-0.3,0-0.6,0-1-0.1s-0.7-0.2-0.9-0.3l0.3-0.9c0.2,0.1,0.5,0.2,0.8,0.3s0.6,0.1,0.9,0.1
		c0.6,0,1-0.1,1.2-0.4s0.4-0.6,0.4-1.2v-0.7c-0.2,0.3-0.5,0.5-0.7,0.6s-0.6,0.2-1,0.2c-0.8,0-1.4-0.3-1.8-0.8s-0.7-1.3-0.7-2.2V115z
		 M38.8,115.1c0,0.6,0.1,1.1,0.4,1.5s0.7,0.6,1.2,0.6c0.3,0,0.6-0.1,0.9-0.2s0.4-0.4,0.6-0.7v-2.9c-0.1-0.3-0.3-0.5-0.6-0.6
		s-0.5-0.2-0.9-0.2c-0.6,0-1,0.2-1.2,0.7s-0.4,1.1-0.4,1.8V115.1z"/>
	<path fill="#8C8C8C" d="M47.7,112.8l-0.6,0c-0.3,0-0.6,0.1-0.8,0.2s-0.4,0.3-0.5,0.6v4.5h-1.2v-6.3h1l0.1,0.9
		c0.2-0.3,0.4-0.6,0.7-0.8s0.6-0.3,0.9-0.3c0.1,0,0.2,0,0.2,0s0.1,0,0.2,0L47.7,112.8z"/>
	<path fill="#8C8C8C" d="M52.8,118.1c0-0.2-0.1-0.4-0.1-0.5s0-0.3,0-0.4c-0.2,0.3-0.5,0.6-0.8,0.8s-0.7,0.3-1.1,0.3
		c-0.7,0-1.2-0.2-1.5-0.5s-0.5-0.8-0.5-1.4c0-0.6,0.2-1.1,0.7-1.4s1.2-0.5,2-0.5h1.3v-0.6c0-0.4-0.1-0.7-0.3-0.9s-0.5-0.3-1-0.3
		c-0.4,0-0.7,0.1-0.9,0.3s-0.3,0.4-0.3,0.7H49l0,0c0-0.5,0.2-0.9,0.7-1.3s1.1-0.6,1.8-0.6c0.7,0,1.3,0.2,1.7,0.5s0.7,0.9,0.7,1.6
		v3.1c0,0.2,0,0.4,0,0.7s0.1,0.4,0.1,0.6H52.8z M50.8,117.2c0.4,0,0.8-0.1,1.1-0.3c0.3-0.2,0.6-0.5,0.7-0.7v-1h-1.3
		c-0.5,0-0.8,0.1-1.1,0.4c-0.3,0.2-0.4,0.5-0.4,0.8c0,0.3,0.1,0.5,0.3,0.7S50.5,117.2,50.8,117.2z"/>
	<path fill="#8C8C8C" d="M57,110.2v1.5h1.2v0.9H57v3.8c0,0.3,0.1,0.5,0.2,0.6s0.3,0.2,0.5,0.2c0.1,0,0.1,0,0.2,0s0.2,0,0.2-0.1
		l0.2,0.8c-0.1,0.1-0.2,0.1-0.4,0.2s-0.3,0.1-0.5,0.1c-0.5,0-0.8-0.1-1.1-0.4s-0.4-0.7-0.4-1.3v-3.8h-1v-0.9h1v-1.5H57z"/>
	<path fill="#8C8C8C" d="M62.2,118.2c-0.9,0-1.6-0.3-2.1-0.9s-0.8-1.4-0.8-2.3v-0.3c0-0.9,0.3-1.7,0.8-2.3s1.2-0.9,1.9-0.9
		c0.9,0,1.5,0.3,1.9,0.8s0.7,1.2,0.7,2.1v0.7h-4.1l0,0c0,0.6,0.2,1.1,0.5,1.5s0.7,0.6,1.2,0.6c0.4,0,0.7-0.1,1-0.2s0.5-0.3,0.8-0.5
		l0.5,0.8c-0.2,0.2-0.5,0.4-0.9,0.6S62.8,118.2,62.2,118.2z M62.1,112.5c-0.4,0-0.7,0.2-1,0.5c-0.3,0.3-0.4,0.7-0.5,1.2l0,0h2.9
		v-0.2c0-0.5-0.1-0.8-0.4-1.1S62.5,112.5,62.1,112.5z"/>
	<path fill="#8C8C8C" d="M65.7,115c0-1,0.2-1.8,0.7-2.5s1-0.9,1.8-0.9c0.4,0,0.7,0.1,1,0.2s0.5,0.3,0.7,0.6v-3.5H71v9.1h-0.9
		l-0.1-0.8c-0.2,0.3-0.5,0.5-0.8,0.7s-0.7,0.2-1,0.2c-0.8,0-1.4-0.3-1.8-0.8s-0.7-1.3-0.7-2.2V115z M66.8,115.1
		c0,0.6,0.1,1.2,0.4,1.5s0.7,0.6,1.2,0.6c0.3,0,0.6-0.1,0.9-0.2s0.4-0.4,0.6-0.7v-3c-0.1-0.3-0.3-0.5-0.6-0.6s-0.5-0.2-0.9-0.2
		c-0.6,0-1,0.2-1.2,0.7s-0.4,1.1-0.4,1.8V115.1z"/>
</g>
</svg>
