<?xml version="1.0" encoding="utf-8"?>
<!-- Generator: Adobe Illustrator 18.0.0, SVG Export Plug-In . SVG Version: 6.00 Build 0)  -->
<!DOCTYPE svg PUBLIC "-//W3C//DTD SVG 1.1//EN" "http://www.w3.org/Graphics/SVG/1.1/DTD/svg11.dtd">
<svg version="1.1" id="Layer_1" xmlns="http://www.w3.org/2000/svg" xmlns:xlink="http://www.w3.org/1999/xlink" x="0px" y="0px"
	 viewBox="0 285 612 235" enable-background="new 0 285 612 235" xml:space="preserve">
<g>
	<g>
		<path fill="#FFFFFF" d="M138,462.2c0-4.6,0-11.9,0-16.5v-26.8c0-4.6-3.3-6.4-7.1-4.1l-23.3,13.3c-4,2.2-10.4,6-14.3,8.3L70,449.9
			c-4,2.2-4,6,0,8.3l23.3,13.4c4,2.2,10.4,6,14.3,8.3l23.3,13.4c4,2.2,7.1,0.5,7.1-4.1V462.2z"/>
		<path fill="#FFFFFF" d="M138,369.6c0-4.6,0-11.9,0-16.5v-26.8c0-4.6-3.3-6.4-7.1-4.1l-23.3,13.3c-4,2.2-10.4,6-14.3,8.3L70,357.2
			c-4,2.2-4,6,0,8.3l23.3,13.4c4,2.2,10.4,6,14.3,8.3l23.3,13.4c4,2.2,7.1,0.5,7.1-4.1V369.6z"/>
		<path fill="#FFFFFF" d="M23.2,399.4c0,4.6,0,11.9,0,16.5v33.4c0,4.6,3.3,6.4,7.1,4.1l28.9-16.7c4-2.2,10.4-6,14.3-8.3l29-16.6
			c4-2.2,4-6,0-8.3l-28.9-16.7c-4-2.2-10.4-6-14.3-8.3l-29-16.6c-4-2.2-7.1-0.5-7.1,4.1V399.4z"/>
	</g>
	<g>
		<g>
			<g>
				<path fill="#FFFFFF" d="M159.7,322.1h20.7v170h-20.7V322.1z"/>
				<path fill="#FFFFFF" d="M212.6,322.1h22.1v24.1h-22.1V322.1z M213.3,369H234v123.1h-20.7V369z"/>
				<path fill="#FFFFFF" d="M252.1,369h24.1l36.7,100l37.4-100H373l-49.5,123.1h-22.1L252.1,369z"/>
				<path fill="#FFFFFF" d="M493.9,457.5c-2.1,11.9-7.4,21.3-15.8,28.1c-8.5,6.8-20.7,10.3-36.6,10.3c-18.7,0-33.1-5.7-43-17.1
					c-10.1-11.3-15-27.1-15-47.5c0-10.6,1.4-20.1,4.3-28.3c2.8-8.3,6.9-15.2,12-20.7c5.1-5.6,11.3-9.8,18.5-12.7
					c7.1-2.9,15-4.4,23.4-4.4c9.5,0,17.7,1.5,24.6,4.6c6.8,3,12.4,7.1,16.7,12.5c4.3,5.4,7.6,11.6,9.7,18.9
					c2.1,7.2,3.3,15.3,3.3,24.1v10.5h-91.4c0,6.2,0.8,11.9,2.5,17.3c1.6,5.3,4.1,9.9,7.1,13.8c3.2,3.9,6.9,6.9,11.6,9.1
					c4.6,2.2,9.9,3.4,15.9,3.4c10.3,0,17.9-2,22.6-5.8c4.8-3.9,8-9.1,9.7-15.8h20V457.5z M475.1,420.2c0-5.8-0.6-11.2-1.9-15.9
					c-1.3-4.8-3.3-8.9-6-12.3c-2.7-3.4-6.2-6.1-10.5-8c-4.3-1.9-9.5-2.8-15.4-2.8c-11,0-19.5,3.3-25.6,9.9
					c-6.1,6.7-9.7,16.4-10.9,29L475.1,420.2L475.1,420.2z"/>
			</g>
		</g>
		<path fill="#FFFFFF" d="M526.1,387.9v-29.6h-10.5v-4.9h27.2v4.9h-10.5v29.5h-6.2V387.9z M548.7,387.9v-34.5h9.4l9.7,25.4l9.5-25.4
			h9.4v34.5h-6.1v-28.4l-10.9,28.4h-4.1l-10.9-28.4v28.4C554.7,387.9,548.7,387.9,548.7,387.9z"/>
	</g>
</g>
</svg>
